<?xml version="1.0" encoding="iso-8859-1"?>
<!-- Generator: Adobe Illustrator 19.0.0, SVG Export Plug-In . SVG Version: 6.00 Build 0)  -->
<svg version="1.1" id="Layer_1" xmlns="http://www.w3.org/2000/svg" xmlns:xlink="http://www.w3.org/1999/xlink" x="0px" y="0px"
	 viewBox="0 0 512 512" style="enable-background:new 0 0 512 512;" xml:space="preserve">
<g>
	<path style="fill:#FB3732;" d="M371.273,397.081l-47.853-47.853c-17.048-17.048,8.734-42.882,25.807-25.807l47.853,47.854
		C414.13,388.322,388.344,414.153,371.273,397.081z"/>
	<path style="fill:#FB3732;" d="M437.27,274.249h-67.676c-24.114,0-24.139-36.497,0-36.497h67.676
		C461.384,237.751,461.409,274.249,437.27,274.249z"/>
	<path style="fill:#FB3732;" d="M323.42,162.772l47.853-47.853c17.05-17.052,42.876,8.739,25.807,25.807l-47.853,47.854
		C332.176,205.632,306.351,179.841,323.42,162.772z"/>
</g>
<g>
	<path style="fill:#FF423D;" d="M371.602,437.02L371.602,437.02c-18.035-18.036-18.035-47.382,0-65.417
		c18.036-18.035,47.382-18.036,65.417,0c18.035,18.036,18.035,47.381,0,65.417C418.985,455.052,389.639,455.056,371.602,437.02z"/>
	<path style="fill:#FF423D;" d="M465.743,302.256c-25.506,0-46.256-20.75-46.256-46.257s20.75-46.257,46.256-46.257
		S512,230.492,512,255.999S491.249,302.256,465.743,302.256z"/>
	<path style="fill:#FF423D;" d="M371.602,140.397c-18.035-18.036-18.035-47.381,0-65.417c18.036-18.035,47.382-18.037,65.417,0
		c18.035,18.036,18.035,47.381,0,65.417l0,0C418.985,158.432,389.638,158.434,371.602,140.397z"/>
	<path style="fill:#FF423D;" d="M256,160.653c-10.078,0-18.249-8.171-18.249-18.249V74.73c0-24.114,36.497-24.139,36.497,0v67.676
		C274.249,152.484,266.078,160.653,256,160.653z"/>
</g>
<path style="fill:#FB3732;" d="M256,56.481v104.173c10.078,0,18.249-8.171,18.249-18.249V74.73
	C274.249,64.651,266.078,56.481,256,56.481z"/>
<path style="fill:#FF423D;" d="M237.751,437.27v-67.676c0-24.114,36.497-24.139,36.497,0v67.676
	C274.249,461.384,237.751,461.409,237.751,437.27z"/>
<path style="fill:#FB3732;" d="M256,351.346v104.173c10.078,0,18.249-8.171,18.249-18.249v-67.676
	C274.249,359.516,266.078,351.346,256,351.346z"/>
<g>
	<path style="fill:#FF423D;" d="M162.772,188.58l-47.853-47.854c-17.048-17.048,8.734-42.881,25.807-25.807l47.853,47.853
		C205.629,179.821,179.843,205.652,162.772,188.58z"/>
	<path style="fill:#FF423D;" d="M142.406,274.249H74.73c-24.114,0-24.139-36.497,0-36.497h67.676
		C166.519,237.751,166.544,274.249,142.406,274.249z"/>
	<path style="fill:#FF423D;" d="M114.919,371.273l47.853-47.854c17.05-17.053,42.876,8.739,25.807,25.807l-47.853,47.853
		C123.816,413.991,97.633,388.56,114.919,371.273z"/>
</g>
<g>
	<path style="fill:#FF5E5B;" d="M256,92.514c-25.506,0-46.257-20.751-46.257-46.257C209.743,20.75,230.493,0,256,0
		c25.506,0,46.257,20.75,46.257,46.257C302.257,71.762,281.506,92.514,256,92.514z"/>
	<path style="fill:#FF5E5B;" d="M256,512c-25.506,0-46.257-20.75-46.257-46.257c0-25.506,20.751-46.257,46.257-46.257
		s46.257,20.751,46.257,46.257S281.506,512,256,512z"/>
</g>
<path style="fill:#FF423D;" d="M256,419.486V512c25.506,0,46.257-20.75,46.257-46.257C302.257,440.238,281.506,419.486,256,419.486z
	"/>
<g>
	<path style="fill:#FF5E5B;" d="M74.98,140.397c-18.078-18.077-18.08-47.337,0-65.417c18.035-18.033,47.382-18.036,65.417,0h0.001
		c18.035,18.036,18.035,47.381,0,65.417C122.364,158.432,93.017,158.434,74.98,140.397z"/>
	<path style="fill:#FF5E5B;" d="M46.257,302.256C20.751,302.256,0,281.506,0,256s20.751-46.257,46.257-46.257
		S92.512,230.493,92.512,256S71.762,302.256,46.257,302.256z"/>
	<path style="fill:#FF5E5B;" d="M74.98,437.02c-18.078-18.077-18.081-47.338,0-65.417l0,0l0,0c18.035-18.035,47.382-18.036,65.417,0
		c18.035,18.036,18.035,47.381,0.001,65.417C122.365,455.052,93.017,455.056,74.98,437.02z"/>
	<path style="fill:#FF5E5B;" d="M256,387.843c-72.698,0-131.843-59.145-131.843-131.843S183.302,124.157,256,124.157
		S387.843,183.302,387.843,256S328.698,387.843,256,387.843z"/>
</g>
<g>
	<path style="fill:#FF423D;" d="M256,0v92.514c25.506,0,46.257-20.751,46.257-46.257S281.506,0,256,0z"/>
	<path style="fill:#FF423D;" d="M256,124.156v263.688c72.698,0,131.843-59.145,131.843-131.843S328.698,124.156,256,124.156z"/>
	<path style="fill:#FF423D;" d="M256,314.947c-32.503,0-58.947-26.444-58.947-58.947s26.444-58.947,58.947-58.947
		s58.947,26.444,58.947,58.947S288.503,314.947,256,314.947z"/>
</g>
<path style="fill:#FB3732;" d="M256,197.053v117.894c32.503,0,58.947-26.444,58.947-58.947S288.503,197.053,256,197.053z"/>
<g>
</g>
<g>
</g>
<g>
</g>
<g>
</g>
<g>
</g>
<g>
</g>
<g>
</g>
<g>
</g>
<g>
</g>
<g>
</g>
<g>
</g>
<g>
</g>
<g>
</g>
<g>
</g>
<g>
</g>
</svg>
