<svg xmlns="http://www.w3.org/2000/svg" width="512" height="512" viewBox="0 0 512 512"><path d="M-1540.554,512h-386.892a62.1,62.1,0,0,1-24.339-4.919,62.4,62.4,0,0,1-19.885-13.412,62.4,62.4,0,0,1-13.411-19.885A62.1,62.1,0,0,1-1990,449.446V62.554a62.1,62.1,0,0,1,4.919-24.339A62.4,62.4,0,0,1-1971.67,18.33a62.394,62.394,0,0,1,19.885-13.411A62.1,62.1,0,0,1-1927.446,0h386.892a62.1,62.1,0,0,1,24.339,4.919A62.4,62.4,0,0,1-1496.33,18.33a62.4,62.4,0,0,1,13.411,19.884A62.1,62.1,0,0,1-1478,62.554V449.446a62.1,62.1,0,0,1-4.919,24.339,62.4,62.4,0,0,1-13.411,19.885,62.4,62.4,0,0,1-19.885,13.412A62.1,62.1,0,0,1-1540.554,512ZM-1734,79.333c-97.414,0-176.666,79.252-176.666,176.666S-1831.415,432.667-1734,432.667-1557.333,353.414-1557.333,256-1636.586,79.333-1734,79.333Zm0,313.619h0a281.626,281.626,0,0,1-23.834-56.88,282.677,282.677,0,0,1-10.969-62.405h69.607a281.417,281.417,0,0,1-10.726,61.591A281.411,281.411,0,0,1-1734,392.952Zm-40.457-1.5v0a141.331,141.331,0,0,1-37.229-17.366,141.459,141.459,0,0,1-30.14-26.717,141.463,141.463,0,0,1-21.4-34.121,141.341,141.341,0,0,1-11.011-39.579h70.049a314.749,314.749,0,0,0,29.733,117.784Zm80.914,0a314.749,314.749,0,0,0,29.733-117.784h70.048a141.338,141.338,0,0,1-11.011,39.579,141.454,141.454,0,0,1-21.4,34.121,141.456,141.456,0,0,1-30.139,26.717,141.343,141.343,0,0,1-37.229,17.366Zm-5.671-153.116H-1768.8a281.424,281.424,0,0,1,10.726-61.591A281.417,281.417,0,0,1-1734,119.048a281.411,281.411,0,0,1,24.069,57.7,281.411,281.411,0,0,1,10.716,61.59Zm-104.975,0h-70.049a141.34,141.34,0,0,1,11.011-39.579,141.461,141.461,0,0,1,21.4-34.121,141.46,141.46,0,0,1,30.14-26.717,141.342,141.342,0,0,1,37.231-17.367,314.75,314.75,0,0,0-29.733,117.784Zm210.427,0h-70.048a314.747,314.747,0,0,0-29.733-117.784,141.341,141.341,0,0,1,37.231,17.367,141.456,141.456,0,0,1,30.139,26.717,141.45,141.45,0,0,1,21.4,34.121A141.34,141.34,0,0,1-1593.762,238.333Z" transform="translate(1990)"/></svg>