<svg xmlns="http://www.w3.org/2000/svg" width="100.516" height="170.245" viewBox="0 0 100.516 170.245"><path d="M1396.014,1506.834c8.962-22.868,6.39-48.805,1.1-72.054-3.589-15.775-5.985-36.9-14.9-50.7-3.089-4.777-7.383-6.973-13.884-8.479-11.082-2.575-36.049-4.122-45.142,2.943-7.2,5.6-11.826,14.242-16.4,22.247-7.852,13.738-5.3,30.532-3.516,46a121.663,121.663,0,0,0,17.658,50.169c6.663,10.672,10.042,22.868,16.866,32.544,2.654,3.764,4.613,10.024,8.3,12.295,2.742,1.689,7.488.686,10.623.907,5.17.363,12.093,1.96,17.031.073C1389.664,1536.7,1390.559,1520.749,1396.014,1506.834Z" transform="translate(-1301.407 -1373.442)" fill="#ccc"/></svg>