<svg xmlns="http://www.w3.org/2000/svg" width="192.153" height="184.453" viewBox="0 0 192.153 184.453"><path d="M646.282,1126.616a100.476,100.476,0,0,0,8.067-13.916c.718-1.629,3.366-5.693,1.937-7.135-1.531-1.544-4.463-.992-6.39-.914a9.531,9.531,0,0,1-2.71,0c-1.11-.367-.349-1-.536-2.045a2.793,2.793,0,0,0-2.154.652c-.107.492.266.762.734.767.263,1.1-.72.8-1.307.791a2.015,2.015,0,0,0-1.9.739c-.349.351-.355.589-.775.777-.271.123-.822-.2-1.015.12a10.305,10.305,0,0,0,1.008,1.662c-1.605.1-1.255,1.682-2.687,1.855.049.207-.084.524-.036.733a11.2,11.2,0,0,1-3.594-.008c-.6-.212-.911-.669-1.549-.87a5.868,5.868,0,0,0-1.807-.134,5.6,5.6,0,0,1-1.681,0c-.712-.315-.429-.935-.639-1.555-.331-.985-1.176-1.686-1.573-2.686a.589.589,0,0,0-.774.474c-1.125.291-2.1-2.025-2.065-2.927a1.156,1.156,0,0,0-.605-.264c-.043.74.125,3.47-1.309,2.29a4.764,4.764,0,0,0-.484.911c-.266-.54-.368-1.182-.81-1.525a8.232,8.232,0,0,0-.532,2.944c-1.006-.552-1.041-1.949-2.433-1.153-1.861,1.063.77,1.145.928,2.048.15,0,.331.05.478.039-.263.023-1.452,1.857-1.959,2.107a10.446,10.446,0,0,1-2.673.713c-.524.073-.959-.254-1.529-.109-.1.026.021,1.741-.153,1.944-.25.285-1.038.142-1.363.506a1.827,1.827,0,0,0-.315,1.478c.217.615,1.041.557,1.192,1.323.53-.014.617.442.475.9-1-.186-1.146.648-1.121,1.42.474.1.392.089.476.516-1.3-.115-1.629,1.564-2.794,1.153-.593-.207-.807-1.058-1.22-1.39a1.95,1.95,0,0,0-1.621-.372c-.031.5-.008,1.014-.04,1.509-1.4-.121-1.45.8-2.2,1.54-.737.725-1.67,1.437-2.018-.073.426-.266,1.614-1.14.65-1.468-.127-.363-.05-.853-.242-1.177-.135-.224-.449.038-.592-.185a6.649,6.649,0,0,1-.25-.655,2.741,2.741,0,0,0-1.709-1.491c-.734,1.17-1.073,1.7-2.466,2.032-.057.847.4,1.65.357,2.509.118.024.233.024.348.038.163.75-.549.562-.85,1.043a3.144,3.144,0,0,0-.142,1.758c.321,0,.527.186.863.168a1.929,1.929,0,0,1,0,.865c-.749-.024-.476.88-.516,1.419-.9.137-.817-.3-1.265.408-.379.605-.037,1.488-1.041,1.428-.843-.052-.8-1.119-1.158-1.431a3.575,3.575,0,0,0-1.81-.393c-1.756-.119-1.63,1.688-3.227,1.944-1.734.274-2.33-.4-2.474,1.659-.547.137-.938.427-1.527.535-.528.1-1.175-.153-1.686.023-.465.16-.444.5-1.024.623a8.641,8.641,0,0,1-1.677,0c-1.105,0-2.009.25-3.1.258-.506,0-1.068.281-1.416.261-.746-.044-.849-.493-1.525-.654-1.106-.266-2,.992-2.967,1.2-1.412.315-1.189-.832-1.189-1.974a5.666,5.666,0,0,0-.391-2.965c-.25-.393-.718-.631-.782-1.162-.044-.368.581-1.338.277-1.69-.008-.034-.02-.067-.027-.1-.637-.1-.8.577-1.508.347a6.718,6.718,0,0,1-.17-1.379,3.755,3.755,0,0,0-.883-.02c-.629.125-.336.326-.641.519-.43.273-.676.573-1.4.234-.331-.976.935-1.3.367-2.457a4.892,4.892,0,0,1-.649-1.524,3.013,3.013,0,0,0-.419-1.259,16.646,16.646,0,0,0-2.889-3.945c-.374-.343-1.3-1.25-1.827-1.17-.1.016-.427.605-.639.7a2.936,2.936,0,0,1-1.45-.008c-1.027-.264-1.17-1.541-2.221-1.944-.347-.134-.9.074-1.266.011a8.4,8.4,0,0,1-3.7-1.254c-.474-.359-2.212-1.7-.707-1.869a5.233,5.233,0,0,0-.46-2.46c-.166-.462-.119-.929-.416-1.266-.251-.282-.831-.252-1.035-.51-.7-.878.131-1.733.734-2.363.9-.943.4-2.621.78-3.831a4.546,4.546,0,0,0,.423-1.932c-.057-.853-.63-.986-.657-1.659a6.358,6.358,0,0,1-3.344-2.217c-.6-.809-.557-.469-1.508-.259-.8.177-1.48-.273-2.214-.237-.168.545-.336,1.338-1.037,1.25.047-.364-.312-1.073-.8-.734-.363.25.073.928-.141,1.242-.743,1.1-1.933-.362-1.8-1.242-.254.05-.611-.089-.864-.04.047-.206-.087-.532-.033-.742a5.7,5.7,0,0,1-1.859-.169,2.469,2.469,0,0,1-.5-.858,1.04,1.04,0,0,0-.556,0c-.083.557-.024,1.186-.068,1.765-.731.282-.315,1.185.137,1.545-1.3.4-1.7-1.273-2.779-1.116-.008.1-.048.234-.063.348a6.158,6.158,0,0,0-1.791-.214,5.042,5.042,0,0,1-1.658.21,2.808,2.808,0,0,1,.234-1.786c.368-.573,1.15-.324.894-1.268a24.1,24.1,0,0,0-2.8.089c-.063-1.008.024-2.049-.04-3.057-.674-.043-1.365-.01-2.046-.022a8.316,8.316,0,0,1-1.778-.426c-1.11-.2-2.256.5-3.364.277.172-.948-2.651-1.815-3.25-2.507a1.313,1.313,0,0,1-.887.75c.185,1,2.031,1.652.992,3.031-.446.6-1.13.063-1.144,1.071-.007.315.5.327.537.637.04.338-.137.564-.17.879a9.369,9.369,0,0,0,.036,1.7,1.606,1.606,0,0,1-.629,1.687,2.4,2.4,0,0,1-2.083,1.024,14.483,14.483,0,0,0-1.787.149c0,.678.714.589,1.118,1.045.365.413.378,1,.785,1.359-.074.075-.327.334-.4.4-.915.084-2.208-.2-2.739.775.524-1.218-1.189-1.5-1.038-2.657a2.885,2.885,0,0,0-1.345.119c.381,1.444-1,1.2-1.182,2.561-.073.562.191,1.331-.126,1.81-.331.5-1.129.441-1.525.939-.654.818.031.745.363,1.281.137.218.153.718.282.875.537.646,1.261.621,1.182,1.643.084.01.968.071.968.058.1,1.638-.911,1.17-1.96,2.152a8.151,8.151,0,0,0-1.581,2.319,5.5,5.5,0,0,0-.573,1.186c-.067.282.167.938.011,1.165-.4.589-2.086-.17-2.741.12.221.676-.2,1.047-.868.938.218.422.24.968-.25,1.157-.113,1.01.315.9.589,1.553.268.642.347,1.518-.592,1.544a18.4,18.4,0,0,1,.218,2.541c-1.434-.158-1.24.947-1.172,1.788a10.56,10.56,0,0,1-.324,3.9c-1.475,4.812-5.364,6.639-8.926,9.962-3.384,3.16-6.365,7.091-10.058,9.869-1.122.847-2.226,1.279-3.108,2.437-1.176,1.541-1.1,3.527-2.186,5.064-1.518,2.154-3.664,3.826-5.041,6.074-1.7,2.769-1.494,5.329-1.452,8.448.071,4.995.2,9.994-.033,14.987-.595,12.877-.5,17.71,7.646,28.236,7.784,10.058,16.7,19.311,23.594,30.046,4.009,6.243,6.606,14.156,12.85,18.614,7.466,5.331,17.748,5.021,25.987,1.814,6.945-2.7,11.455-7.768,17.263-12.059,4.372-3.229,9.219-5.191,13.143-9.111,13.2-13.172,17-32.238,22.726-49.233,6.719-19.924,23.007-30.176,36.336-44.9C634.079,1139.749,640.944,1134.835,646.282,1126.616Z" transform="translate(-466.216 -1081.767)" fill="#ccc" stroke="#fff" stroke-width="3.543"/></svg>