<svg xmlns="http://www.w3.org/2000/svg" width="126.56" height="83.002" viewBox="0 0 126.56 83.002"><path d="M1350.293,514.821c-1.476-4.622-3.523-9.105-4.995-13.7a57.387,57.387,0,0,0-3.67-9.036c-1.372-2.605-2.767-5.631-4.285-8.056-.992,1.973-6.025,3.251-8.071,4.02a52.161,52.161,0,0,1-10.9,3.267c-6.689,1.044-13.889,1.522-20.367,3.67-12.533,4.164-25.735,9.425-36.824,16.527-7.687,4.926-17.415,6.064-24.821,11.355-2.885,2.061-10.294,5.825-10.794,9.68-.306,2.359,2.053,5.832,2.682,8.126a118.173,118.173,0,0,0,6.742,18.275c.714,1.551,2.524,7.289,4,7.973.566.265,2.2-.04,2.83-.041a84.267,84.267,0,0,0,8.9-.26,147.693,147.693,0,0,0,16.075-2.394,77.151,77.151,0,0,1,14.923-1.992,64.623,64.623,0,0,1,10.412.287c3.956.576,7.928-.7,11.446,1.938,2.982,2.236,6.543,1.647,10.058,1.647H1328.5c7.638,0,15.351-.315,22.988.025.573-3.41.266-7.058.266-10.494,0-6.38-.159-12.785.027-19.157.176-5.957.869-12.587-.563-18.435C1350.948,516.961,1350.634,515.887,1350.293,514.821Z" transform="translate(-1225.544 -484.025)" fill="#ccc"/></svg>