<svg xmlns="http://www.w3.org/2000/svg" width="123.049" height="90.431" viewBox="0 0 123.049 90.431">
  <path id="ASSAM" d="M1168.619,645.306a1.123,1.123,0,0,0,1.231.807c-.294.448-.508.992-.872,1.494s-.847.893-1.315,1.444a3.248,3.248,0,0,0-.648.911c-.076.2-.008.9-.113,1.034-.359.455-.984.047-1.352.357s-.339.961-.381,1.406c-.283,3.073-.05,6.348-.05,9.438,0,.884-.089,1.431.381,1.923a2.73,2.73,0,0,0,2.2.654c.805,0,3.5.446,4.106-.025.726-.564-.3-2.589-.512-3.311-.17.035-.432-.069-.605-.032a10.119,10.119,0,0,1,.007-1.383c.973-.153,1.008-1.026,1.562-1.67.477-.56.324-.46,1.121-.545,1.1-.121,4.622.469,4.627-1.372a13.584,13.584,0,0,0,2.428-.21c.749-.185,1.2-.453,1.91-.17a4.91,4.91,0,0,0,1.61.65,13.436,13.436,0,0,0,2.683.185c.8-.076,1.532-.483,2.353-.5a5.8,5.8,0,0,1,1.924.6c.977.306,1.589-.286,2.315.529.4.45.266,1.364,1.02,1.492.734.121.683-.828.935-1.016a1.674,1.674,0,0,1,1.374-.266,9.415,9.415,0,0,0,.017,2.177c.3.815.836.67,1.662.621a2.13,2.13,0,0,1,.532-1.283c.227-.213.752-.051,1.014-.4.25-1.6,1.351-1.052,2.456-1.251,1.67-.306-.057-.686.046-1.693.1-.94,1.327-.823,1.412-1.657.59-.038,1.3-.163,1.766.234.548.467.388,1.64,1.168,1.93-.07-1,.449-1.074.67-1.79.266-.859-.391-1.444.5-1.949,1.32-.746,3.329,1.632,4.288.028.732-.132,1.487.018,2.215-.081a13.863,13.863,0,0,1,2.648-.309c.113.766-.778.716-1.246,1.01-.345.218-.971.952-.906,1.4,1.313.266,1.192,1.076.98,2.189a10.943,10.943,0,0,0-.21,2.718c1.015.23,1.5-.7,2.431-.882a7.83,7.83,0,0,1,2.71-.387c1.177.244.9,1.393,1.909,1.833a5.608,5.608,0,0,0,2.572.357c-.875.125-.96,2.517-.8,3.106.377,1.412,2.362,1.375,3.129,2.428a2.847,2.847,0,0,1,.152,2.233,9.068,9.068,0,0,0-1.218.524c-.946.625-1.546,1.871-2.508,2.412-.913.512-1.906.369-2.658,1.2-.682.754-.722,1.713-1.821,1.976-1.657.4-3.16-.46-4.541,1.024-1.04,1.115-1.29,2.962-1.38,4.417a2.943,2.943,0,0,0,1.117,2.581c.151.153,2.493,1.637,2.463,1.3a6.134,6.134,0,0,1-.057,1.928c-.225.089-.5-.054-.7.075a4.811,4.811,0,0,1,.782,3.537c-.014.072,3.836-.5,4.106-.487.047.751-.008,1.532.04,2.283a2.276,2.276,0,0,0,2.048-.787c.557-.617.476-1,.534-1.883.366-.012.755-.024,1.121-.04a4.78,4.78,0,0,1,.048-1.371c.24-.525.781-.492,1.141-.9.589-.654.495-2.138.533-2.994.476.849,1.686,1.48,2.058,2.427.756.057,1.242-.762,1.913-.9.589-.12,1.363.315,2.041-.008a5.473,5.473,0,0,1,.411-2.17,4.876,4.876,0,0,0,.512-2.323c-.006-1.469.055-2.992.149-4.5.669-.04,1.361,0,2.025-.04a9.825,9.825,0,0,0,.412-2.3c.17-.931.481-1.634-.121-2.56a7.361,7.361,0,0,0,1-.169,4.205,4.205,0,0,0,.54-1.4,9.415,9.415,0,0,1,.15-1.807,9.191,9.191,0,0,1,1.031-1.166c.44-.469.654-.833,1.388-.8a4.931,4.931,0,0,1-.376-2.686c.008-1.828-.616-.808-1.712-1.513a5.337,5.337,0,0,1-.62-.939c-.268-.5-.633-.108-.253-.778.283-.506,1.638-.944,2.179-1.183-.024-.859.612-.711.8-1.263.218-.644-.12-1.089.278-1.676.719-1.071,2.455-1.057,2.922-2.3a1.114,1.114,0,0,1-.605-1.428,6.453,6.453,0,0,0,2.184-.75c-.524.321-.106,1.21.121,1.585.461.756.766.8,1.572.718,1.67-.17,2.262-1.718,1.75-3.219-.374-1.093-.285-.976.46-1.8,1.024-1.138.171-.976-.31-2.1a27.188,27.188,0,0,0,1.847-3.2c.451-.476,1.089-.472,1.484-1.145.637-1.1.2-2.71,1.023-3.715a1.963,1.963,0,0,1,1.17-.3c.133.484-.1,1.148.073,1.605a.483.483,0,0,0,.646.323c.327-.089.25-.208.45-.441.387-.441,1.081-.753,1.233-1.363a11.543,11.543,0,0,1,.25-1.616c.863-2.139,3.288-2.735,5.178-3.854a3.812,3.812,0,0,0,1.411-1.179c.232-.393.524-1.234,1.083-1.366.185-.46-.024-1.053.379-1.359a6.211,6.211,0,0,1,1.633-.488c.346-.111.758-.062,1.081-.177a2.7,2.7,0,0,0,.919-.8c.3-.335.8-.621,1.089-.986s.257-.624.769-.778a6.778,6.778,0,0,1,1.361-.057c.18-.259.605-.458.865-.716-.234.164-.315.057-.3-.183.266.03,1.017-.835,1.25-1.042.287-.252,1.187-.492,1.363-.823a9.006,9.006,0,0,0,.114-1.551c.179-.872.438-.871,1.288-1.089.4.542,2.2.573,2.839.363.358-.121.782-.4,1.169-.563.369-.164,1.239-.209,1.438-.508a2.64,2.64,0,0,0,2.767-2.208c.057-.5.218-1.988-.444-1.8-.379.1-.468.659-.769.844a2.1,2.1,0,0,1-1.1.115,3.269,3.269,0,0,0-.525-1.425,3.239,3.239,0,0,1-.266-1.716c-1.486-.617-1.541-1.948-1.541-3.432,0-.564-.2-1.651.189-2.124.168-.2.6-.311.823-.5a3.571,3.571,0,0,0,.718-.858c.233-.379.846-.884.669-1.242-.425-.882-2.439-.361-3.127-.238a14.552,14.552,0,0,1-1.533.321c-.758.043-1.14-.1-1.645.467a1.577,1.577,0,0,1-1.275.743c-.6.1-.779.439-1.277.718a6.881,6.881,0,0,1-1.613.458,8.213,8.213,0,0,0-1.55.307c-.271.137-.148.379-.335.52-.228.17-.508-.013-.76.076-.291.1-.368.374-.581.595a1.078,1.078,0,0,1-.71.374,4.316,4.316,0,0,0-.774.186c-.266.129-.427.4-.71.508-.562.218-.976.057-1.484.476a1.535,1.535,0,0,1-.646.363c-.315.131-.376.294-.659.471a4.044,4.044,0,0,1-.761.192c-.355.121-.307.153-.581.4-.068.058-.046.089-.073.17-.218-.039-.234.075-.373.137-.123.056-.354.07-.46.123a3.566,3.566,0,0,0-.819.715,3.764,3.764,0,0,1-1.377.836,5.805,5.805,0,0,0-1.611.972c-.552.523-1.015.153-1.664.46-.091.557-.828.313-1.236.437-.573.178-.942.718-1.549.653a5.013,5.013,0,0,1-1.479-.713,3.1,3.1,0,0,0-1.556-.387.554.554,0,0,0-.256.632c.1.379.274.184.518.412.43.411.476,1.815.443,2.365-.175.081-.137.088-.26.194-.449.08-.664.627-.96.978-.314.372-.637.706-.949,1.035s-.7.589-1.051.961a5.223,5.223,0,0,1-.444.453,4.4,4.4,0,0,0-.518.518c-.6.717-1.119,1.331-1.668,2.129a2.043,2.043,0,0,0-.528,1.291c0,.532.218.911.185,1.475-.589.039-.928-.046-1.234.46a9.968,9.968,0,0,1-.707,1.212,2.867,2.867,0,0,1-1.406.855,13.35,13.35,0,0,1-1.742.064,5.35,5.35,0,0,0-.774.059c-.363.082-.444.333-.7.46a3.359,3.359,0,0,1-1.554.174c-1.218-.075-2.32-.144-3.29.723a4.114,4.114,0,0,1-1.866.516,3.429,3.429,0,0,1-2.456-.19,6.883,6.883,0,0,0-1.942-.644,17.949,17.949,0,0,0-3.285-.586c-.8-.007-.718.531-1.355.8-.248.1-.53.018-.779.1a8.752,8.752,0,0,0-.8.438,6.694,6.694,0,0,1-2.218,1.04,5.581,5.581,0,0,0-1.508.255,6.185,6.185,0,0,1-1.218.585c-.411.073-.788.1-1.183.2a9.008,9.008,0,0,0-1.649.438,4.094,4.094,0,0,1-2.192.153c-.955-.124-1.559-1.192-2.508-1.446a27.311,27.311,0,0,1-2.77-.766c-2.566-.977-4.972-.17-7.574-.363-2.189-.162-4.114-1.147-6.369-1.258-3.688-.185-6.9-1.515-10.575-.815-3.364.643-5.093,3.356-8.107,4.624-.764.321-2.482.444-3.009,1.122s-.128,2.824-.137,3.686a5.486,5.486,0,0,1-.654,2.307A5.98,5.98,0,0,0,1168.619,645.306Z" transform="translate(-1163.27 -602.479)" fill="#ccc" stroke="#fff" stroke-width="3.543"/>
</svg>
