<svg xmlns="http://www.w3.org/2000/svg" width="112.636" height="95.488" viewBox="0 0 112.636 95.488"><path d="M883.5,662.893c-3.735-.985-7.558-.422-11.125-1.341-4.2-1.081-6.383-4.032-11.078-4.4a112.1,112.1,0,0,0-18.182-.393c-4.153.349-7.922,1.176-9.974,5.087-1.815,3.462-2.2,7.7-3.689,11.323-1.541,3.77-3.908,6.966-5.834,10.515-3.672,6.752-.138,13.79.17,20.991.429,10.051-1.972,17.529,8.252,23.147,6.719,3.694,14.156,6.2,21.238,9.1,7.439,3.048,14.8,6.445,22.464,8.913,14.092,4.54,30.4,3.541,42.813-5.147,12.18-8.527,9.78-19.867,8.44-32.708a40.15,40.15,0,0,1,1.437-15.8c.856-2.925,2.412-5.805,2.4-8.889-.013-3.666.429-7.313.4-10.977-3.2-1.138-6.353.214-9.558-.17-1.1-.132-2.352-.081-3.49-.249a59.835,59.835,0,0,1-7.321-2.026c-3.073-.863-6.165-1.668-9.261-2.448C895.565,665.906,889.511,664.48,883.5,662.893Z" transform="translate(-820.368 -654.789)" fill="#ccc" stroke="#fff" stroke-width="3.543"/></svg>