<svg xmlns="http://www.w3.org/2000/svg" width="93.438" height="143.737" viewBox="0 0 93.438 143.737"><path d="M690.848,914.553c1.965-.185,2.329-1.944,2.35-3.737a16.985,16.985,0,0,0,0-1.936c-.063-.612-.367-1.182-.367-1.788a2.2,2.2,0,0,0,2.432-1.439c.246-1.158-1.186-3.475-.524-4.39.3-.412.908-.2,1.409-.407.053-.837-.014-1.7.039-2.541.992-.088,1.645.686,2.542.477a11.269,11.269,0,0,0,0-1.508c-1.17-.442.339-2.116.422-2.718a3.906,3.906,0,0,0,1.517.1c.086-1.313-.044-2.654.039-3.962a11.1,11.1,0,0,0,3.508-.371c.469-.187.6-.532,1.38-.423.589.082,1.138.618,1.659.5.05-.628.892-1.154,1.432-1.4.852-.39,1.2-.07,1.684-.775.175-.254.05-.561.3-.867s.558-.324.9-.524c.43-.252,1.406-.56,1.654-1.057.327-.658-.177-1.476.25-2.105.417-.612,1.2-.816,1.549-1.513.323-.654.13-1.6.508-2.2.476-.764,1.363-.619,1.184-1.781,1.263-.077,2.542.282,3.482-.637a3.1,3.1,0,0,0,.664-2.865,3.492,3.492,0,0,0-1.319-2.574c-.637-.644-1.178-1.9-2.3-1.831a2.066,2.066,0,0,0-1.444-1.645c-.53,1.343-.976.218-1.444-.11a2.148,2.148,0,0,0-2.03-.29c-.865.307-.823,1.036-1.648.355a6.012,6.012,0,0,1-1.065-1.413c-.587-1.545,3.154-2.353,2.457-4.235-.225-.605-3.235-.72-1.654-2.275a1.5,1.5,0,0,1,2.574,1.1,5.323,5.323,0,0,0,3.205-.209,6.761,6.761,0,0,1,2.2.1c.911.057,3.678-.492,3.5,1.009.813.043,2.831-.881,2.971.258.944.1,1.847-.42,2.573.286.319.315-.122,1.177.637.808.326-.155.292-.923.4-1.214.5-1.406.621-.13,1.793-.629.7-.3.263-1.428.638-1.944.515-.7,1.492-.173,2.039-.6.589-.453.2-1.39,1.114-1.7.754-.254,1.6.16,2.4-.209,1.843-.849,3.135-1.826,5.161-2.205a10.345,10.345,0,0,1,4.872-.142c2.041.605,1.032,1.66,1.575,3.042.485,1.234,2.2,1.547,3.069,2.375.686.658.576.944.87,1.782.229.654.507,1.233,1.31,1.052.082,1.343.157,2.255,1.823,2.181,1.391-.064,1.29-.723,2.091.52.831,1.294.327,1.578-.025,2.961a6.651,6.651,0,0,0,.021,3.074c1.639-.329,1.185,2.847,1.419,3.872,1.217.049,1.47,1.783,2.3,2.432s2.072.228,3.217.324a9.848,9.848,0,0,0-.635,2.944c0,.65.1,1.041-.3,1.444-.508.509-1.5.664-2.025,1.17-.508.49-1.549,1.264-1.785,2.037a15.069,15.069,0,0,0,1.466,11.628c2.247,3.6,2.9,4.509,2.9,8.667,0,3.57.523,6.654-1.362,9.716-1.9,3.084-4.785,5.884-7.259,8.51-4.731,5.022-10.672,9.239-13.269,15.813-1.412,3.567-3.372,6.989-4.751,10.5-1.344,3.412-1.67,7.277-3.025,10.766-2.776,7.139-7.242,13.421-12.139,19.254-2.476,2.944-4.219,6.88-6.994,9.509-3.356,3.176-8.755,3.793-13.142,4.251-5.728.6-10.761.185-14.546-4.595-4.825-6.1-7.568-14.631-10.18-21.857-2.134-5.9-3.364-11.22-1.67-17.383,1.6-5.814,4.178-11.349,6.065-17.076a18.447,18.447,0,0,0,1.225-6.754c-.068-1.369-1.093-3.067-.739-4.424.318-1.218,1.283-1.4,2.031-2.346,1.422-1.805,1.481-4.691,4.35-4.928C688.569,914.762,689.727,914.657,690.848,914.553Z" transform="translate(-672.952 -853.398)" fill="#ccc" stroke="#fff" stroke-width="3.543"/></svg>