<svg xmlns="http://www.w3.org/2000/svg" width="8.431" height="9.466" viewBox="0 0 8.431 9.466"><path d="M318.455,1057.442a1.954,1.954,0,0,0-.7.036c-.008.233-.172.355-.171.605-.5.031-2.066.228-1.951-.746.067-.563.831-.2.976-.863.6-.04,1.853.209,1.646-.8-.288-1.371-2.362-1.59-3.261-.886a3.61,3.61,0,0,0-1.1,3.38c.5,2.251,2.735,2.235,4.724,2.109a23.111,23.111,0,0,0,0-2.8A.859.859,0,0,0,318.455,1057.442Z" transform="translate(-312.003 -1052.609)" fill="#999" stroke="#fff" stroke-width="3.543"/></svg>