<svg xmlns="http://www.w3.org/2000/svg" width="11.232" height="12.09" viewBox="0 0 11.232 12.09"><path d="M534.309,592.973c.038-.053.1-.074.209-.082.005-.083-.024-.215.035-.274.116.05.215.282.319.159.05-.059.02-.155.072-.218s.112-.057.19-.065a.433.433,0,0,1,.241.032c.089.052.1.172.195.077.046-.048.019-.133.076-.181a.884.884,0,0,1,.179-.08c.02-.074-.013-.261.05-.3s.255,0,.321,0c.007-.116-.014-.419.168-.228.057.055.046.148.124.183s.139-.007.223.052c.057.04.075.107.149.109s.108-.111.206-.062c.119.06.063.347.07.462a.332.332,0,0,0,.123,0c.02-.029.082-.126.115-.14.061-.024.119-.005.177-.036.12-.062.2-.228.355-.163.113.046.133.188.161.294.047.175.078.17.256.18a.982.982,0,0,1,0,.336c-.061.121-.18.036-.291.065-.144.036-.113.076-.032.161.112.117.137.11.148.273a1.053,1.053,0,0,1,.333.07.175.175,0,0,1,0,.059c-.043.024-.094.055-.091.113.153-.008.1.1.13.2.057.142.177.07.271.127s.06.227.132.321.254.1.335.2.025.251.068.381c.144.033.137-.073.227-.127a.617.617,0,0,1,.333-.029c.008.081-.051.17-.048.223,0,.074.086.118.1.194s-.035.122-.064.177a.452.452,0,0,0-.049.21c-.008.159-.109.276-.045.448.057.137.188.194.291.29a.368.368,0,0,1,.093.359c-.047.091-.234.078-.324.109a.47.47,0,0,0-.286.633c.109.226.359.287.508.473.107.129.16.584.008.71a1.17,1.17,0,0,0-.146.108c-.041.053-.016.1-.116.13a.294.294,0,0,1-.21-.033c-.067-.043-.068-.144-.129-.163a1.153,1.153,0,0,0-.339.1.935.935,0,0,0-.327.141c-.041.04-.031.11-.08.146s-.118,0-.159.067c-.07.113.073.243.129.311a.439.439,0,0,1,.13.335c0,.132-.087.209-.148.32a2.355,2.355,0,0,1-.4.161,2.2,2.2,0,0,1-.432,0c-.047,0-.2.027-.239,0s0-.134-.051-.187c-.023-.024-.084-.023-.114-.051a1.148,1.148,0,0,1-.048-.11.5.5,0,0,1-.034-.195.606.606,0,0,1-.482-.18.91.91,0,0,1-.112-.5,2.229,2.229,0,0,1,0-.274c.012-.068.1-.166.026-.24-.038-.038-.2-.024-.255-.067-.073-.058-.057-.1-.067-.207-.089-.007-.4-.081-.387.06a.694.694,0,0,1-.3-.032c-.008-.161,0-.128-.132-.19a.97.97,0,0,1-.214-.182c-.073-.067-.168-.173-.287-.126-.089.036-.094.091-.035.15s.175.051.211.158c.042.126-.032.123-.142.129-.182.008-.347-.026-.529-.013,0,.009,0,.018-.006.027s-.029,0-.043.005l-.006.027c-.046.014-.091.027-.14.037.005.031-.019.047-.021.076a1.837,1.837,0,0,1-.4-.014c-.149-.019-.25-.079-.4-.02a.206.206,0,0,0-.08.04c-.02.019-.024.073-.032.077-.038.032-.115.083-.178.048-.079-.043-.074-.332.03-.342a.121.121,0,0,0,0-.076c-.126-.045-.17-.039-.177-.194-.1,0-.064-.071-.11-.117a.726.726,0,0,0-.129-.077c-.073-.038-.066-.017-.122-.083-.018-.021,0-.053-.023-.078-.008-.008-.038-.008-.048-.019-.041-.048-.073-.022-.1-.1a.87.87,0,0,1,0-.161c0-.273-.008-.343.274-.355.176-.007.172-.089.25-.238.053-.1.087-.219.137-.328.027-.056.043-.152.1-.161s.1.07.176.065c.107-.008.072-.089.145-.127.089-.044.1.027.129.062.061.07.008.078.128.1a.94.94,0,0,0,.19,0c.026-.093-.027-.058-.06-.094-.008-.01-.046-.013-.066-.032s-.007-.058-.012-.081a.576.576,0,0,1-.084-.29c.024-.281.2-.262.431-.277a.707.707,0,0,1,.031-.256c.048-.093.075-.078.087-.193.01-.138,0-.134-.1-.19s-.153-.06-.125-.2c.153,0,.1-.433.089-.549l-.137-.005c-.024-.108.05-.185.057-.284s-.044-.2-.024-.291a.2.2,0,0,0,.063-.2c-.015-.055-.071-.034-.086-.081a.4.4,0,0,1,0-.113A.316.316,0,0,1,534.309,592.973Z" transform="translate(-530.89 -589.973)" fill="#ccc" stroke="#fff" stroke-width="3.543"/></svg>