<svg xmlns="http://www.w3.org/2000/svg" width="27.721" height="28.297" viewBox="0 0 27.721 28.297"><path d="M336.928,1327.284c2.409,3.968,4.193,9.135,9.785,4.837,3.136-2.412,4.428-6.836,4.862-10.6.185-1.6.547-3.946.127-5.527-.483-1.815-3.2-2.9-4.607-3.9a4.874,4.874,0,0,0-2.586-1.292,20.551,20.551,0,0,0-2.294,0c-1.35.053-1.889,1.071-3.348.613a23.623,23.623,0,0,0-3.166-.9c-.712-1.923-2.884-1.5-4.525-1.5-2.618,0-3.315-.094-3.445,2.626-.092,1.9-.253,4.385.913,6,1.3,1.793,3.456,2.715,4.832,4.413A49.174,49.174,0,0,1,336.928,1327.284Z" transform="translate(-325.92 -1307.225)" fill="#ccc" stroke="#fff" stroke-width="3.543"/></svg>