<svg xmlns="http://www.w3.org/2000/svg" width="135.226" height="115.665" viewBox="0 0 135.226 115.665"><path d="M175.748,807.462c.518-.869,1.633-.329,2.729-.259.053.885-.4,1.734-.219,2.542.622.04,1.266-.115,1.774.309-1.16.733-2.485.9-2.7,2.678-.185,1.474.535,2.82,2.184,2.73-.165.633-.379,1.657.4,1.923,1.245.421,1.585-2.475,2.815-1.387a2.321,2.321,0,0,1,.928,1.379c.381,1.791-1.057,2.392-1.935,3.617-.345.483-.908,1-.554,1.706.362.726,1.01.448,1.589.739,1.356.68.28,2.025,1.25,3.054.819-.427,2.215-1.022,2.361.309.107.979-.578,2.1-.161,3.126.477,1.17,1.816.347,3,.616.811.183.624.189,1.13.9.414.575.606,1.057,1.429.928.015.073.027.143.04.218.331.024.674,0,1.01.022,1.323.081,1.791-.137,2.352,1.133.359.815.135.6-.036,1.212-.153.559-.3,1.025.266,1.271.879.389,2.216-.974,2.847.511.322.758-.022,2.389-.008,3.229.017,1.393.352,2.314,1.807,2.323.824.005.993-.141,1.29.516a4.236,4.236,0,0,1,0,1.548,7.494,7.494,0,0,1-1.945,2.839c-.557.577-.379.631-1.412.645-.508.007-1.024-.014-1.525.022A3.567,3.567,0,0,1,194.884,850c-.891.429-1.786-.13-2.691.052-.567,3.241,4.811.557,4.478,3.962-1.25.078-2.8-.233-3.855.278a6.389,6.389,0,0,0-1.186.871c-.678.79.093.889.645,1.608a6.373,6.373,0,0,1,.766,1.678c.089.22.444.637.428.871-.024.363-.476.376-.531.541-1.024,3.176,1.378,3.977,3.449,5.563a7.742,7.742,0,0,1,3.042,3.8c.391,1.35.412,2.744.909,4.079.867,2.324,2.05,4.509,2.858,6.864,1.21,3.528,3.725,7.278,3.157,11.188-.766,5.293-4.993,6.041-9.316,8.139-4.977,2.412-9.976,4.868-15.367,6.2a46.158,46.158,0,0,1-10.447,1.452c-5.9.063-11.212-2.466-17.151-2.541-7.658-.1-14.4-1.831-21.871-3.533-7.563-1.724-15.916-2.717-23.117-5.671-5.992-2.46-9.307-8.378-13.3-13.161-2.8-3.354-6.1-6.369-7.5-10.581-1.533-4.588-2.49-9.623-3.617-14.332-1.331-5.557-2.442-11.22-3.985-16.721-1.434-5.114-3.433-9.966-4.283-15.234-.734-4.557-2.884-9.311-1.064-13.887,3.567-8.97,13.325-12.33,21.758-14.669,5.923-1.643,13.651-2.442,19.74-.834,5.372,1.414,9.085,4.086,14.842,4.159,1.923.024,3.95,1.056,5.756-.062a5.819,5.819,0,0,1,2.992-.9c.291,0,1.311-.161,1.522.024.347.31.056.863.153,1.266.27,1.124,1.038,1.347,2.049,1.013.012-.367.026-.756.039-1.122.936.016,1.85-.286,2.817-.278,1.153.01,1.329.762,2.584.774.949.008,2.224-.452,2.946.258.523.515.508,2.266,1.681,1.916-.04-.623.379-1.847,1.162-1.639a.747.747,0,0,0,.9.734,2.737,2.737,0,0,1,2.713-1.767c.068.96-.065,1.7.895,2.21.829.441,2.062-.173,2.874.218.743.357.223.605.51,1.168a2.368,2.368,0,0,0,.8,1c1.012.782,1.068.911,1.152,2.21.968-.322,1.031-1.051,1.552-1.771.8-.226.944.6,1.4,1.013a3.45,3.45,0,0,0,1.53.791,11.942,11.942,0,0,0,.167,1.9c1.234.052,3.96-.618,4.262.9,1.218.379,1.254-1.181,1.4-1.916A2.074,2.074,0,0,1,175.748,807.462Z" transform="translate(-72.959 -793.259)" fill="#ccc" stroke="#fff" stroke-width="3.543"/></svg>