<svg xmlns="http://www.w3.org/2000/svg" width="62.604" height="79.677" viewBox="0 0 62.604 79.677"><path d="M466.029,510.88c-.074-.947.029-1.912-.014-2.864a16.046,16.046,0,0,0-.906-4.032,5.3,5.3,0,0,1-.072-3.645c.315-1.236.349-2.608.734-3.818.121-.016.226-.026.347-.04.282-.512.28-1.153.564-1.637.4-.691.99-.883,1.135-1.829.193-1.257-.509-3.251,1.4-3.246.129-.4.46-.457.637-.784.148-.281.047-.729.252-.937.444-.452.906-.3,1.564-.344.17-2.735,3.311-4.048,3.915-6.806.637-2.9-.858-5.815-1.1-8.623.036.4-4.621-4.417-4.989-4.846-1.774-2.073-3.529-3.721-6.357-4.149-8.28-1.254-17.582,4.251-24.532,8.1-4.583,2.536-9.62,4.049-14.511,5.849-1.256.462-2.483,1-3.736,1.468-.818.308-1.7.185-2.315.854-1.19,1.293-1.37,3.662-1.367,5.332a9.845,9.845,0,0,0,.121,2.831,1.709,1.709,0,0,0,.686,1.032,7.765,7.765,0,0,0,1.292.331,2.878,2.878,0,0,1,0,1.291c-1.531.041-1.17,1.629-1.1,2.714.55.019,1.134.04,1.684.057a7.53,7.53,0,0,1,.029,1.714c-.1.51-.54,1.073-.585,1.4-.116.814.228,1.762.169,2.831-.616.046-1.261.013-1.877.057-.092.814.8,1.093,1.486,1.161-.013.383.266.652.212,1.057a6.506,6.506,0,0,1,3.659.048c.1-1.654.712-.992,1.539-.75.56.165,1.531.547,2.139.808-.04.461.109,1.021.063,1.486.258-.04.654.112.9.063.2.765,1.832,1.174,2.551,1.127,1.119-.073,1.855-1.154,3.025-.911.016.208.123.444.127.656,2.913-.015.612,3.553,1.887,4.71.121.1,1.089.53,1.124.221a25.92,25.92,0,0,0-.145,6.614c.171,1.174,1.089,1.946,1.544,2.992.274.629-.015,1.392.605,1.929s1.9.22,2.642.27c.048,1.405.034,1.835,1.239,2.448,1.011.515,1.031.331,1.743,1.147,1.16,1.33,2.506,2.923,1.847,4.652-.138.368-.589.637-.78,1.169-.13.37-.031.812-.151,1.2-.379,1.25-.664,1.218-.237,2.323.378.976.627,1.158,1.592,1.322-.04-.008,1.437-.161,1.506-.166.218-.012.718.425,1.175.363.043-.847-.727-2.871-.367-3.464.448-.738,2.266-.356,3.082-.408a4.1,4.1,0,0,1-.524-2.261,3.055,3.055,0,0,0,.537-.387c-.637.1-1.194-.093-1.115-.779,1.137-.24,3.422.871,4.077,1.666,1.184,1.432.7,2.1,3.022,1.949.262-.544-.018-1.694.407-2.066.315-.276,1.872-.031,2.308-.057.017-.549.04-1.135.063-1.679,1.113-.724,2.052,1.349,3.223,1.548-.013.121,0,.38.005.515-1.308.484-1.273,3.964-1.326,5.259-.04,1-1.178,4.946,1.133,4.23.01-1.282.84-1.46,1.935-1.355a7.916,7.916,0,0,0-.123-1.5c.7.4,2.9.128,3.638-.019,1.161-.23,2.794-3.152,4.127-2.625-2.125-.836-2.006-3.212.444-3.651.824-.148-.765-3.512-.929-3.881a6.863,6.863,0,0,0-1.354-2.2,3.48,3.48,0,0,1-1.173-1.673c-.076-.379-.04-1.921-.434-2.076-.137-.055-.285-.022-.424-.073a1.53,1.53,0,0,1-.266-.175c-.112-.078-.237-.16-.347-.245-.188-.143-.363-.315-.552-.46-.087-.065-.155-.145-.242-.21-.063-.048-.185-.088-.214-.153s.01-.231-.01-.323a1.573,1.573,0,0,0-.1-.271c-.115-.268-.208-.545-.318-.815a2.3,2.3,0,0,1-.033-1.524c.1-.416.25-.825.352-1.242.2-.8-.389-1.412-.6-2.136A8.441,8.441,0,0,1,466.029,510.88Z" transform="translate(-414.873 -461.33)" fill="#ccc" stroke="#fff" stroke-width="3.543"/></svg>