<svg xmlns="http://www.w3.org/2000/svg" width="69.069" height="70.643" viewBox="0 0 69.069 70.643"><path d="M511.458,399.344c-1.151.585-2.229,2.274-2.315-.008a6.234,6.234,0,0,1-2.428-.275c-.266-.149-.535-.645-.8-.9a3.628,3.628,0,0,0-2.8-.929c-.053-.8.014-1.623-.019-2.432a3.525,3.525,0,0,0-.129-1.422c-.249-.459-.434-.315-.916-.678a14.172,14.172,0,0,1-1.869-1.637c-.863-.938-1.976-1.972-2.727-2.979-.253-.347-.33-.736-.554-1.089-.589-.918-1.347-.614-2.2-.965-.9-.371-3.186-1.589-2.74-2.91.217-.645.633-.791.47-1.626-.041-.214-.237-.408-.271-.7a7.462,7.462,0,0,1,.082-.953c-.1.012-.25-.037-.358-.029-.06-1.771-.968-.518-2.052-1.065-.413-.209-.51-.989-.738-1.335a11.064,11.064,0,0,0-1.024-1.436c-1.158-1.234-.772.761-1.258,1.307-.508.572-1.967.353-2.768.3a12.868,12.868,0,0,0-.185-3.2,9.359,9.359,0,0,0-1.67-2.5c-.6-.788-1.167-1.573-1.737-2.342-.278-.379-.774-.8-.566-1.339a1.79,1.79,0,0,1,1.227-.59c.146-.64-.831-1.172-1.12-1.653-.508-.85-.589-1.576-1.476-2.136a14.312,14.312,0,0,0-2.331-1.05c-.689-.263-1.8-.031-2.409-.469.342-.6,1.234-.153,1.547-.876a3.6,3.6,0,0,0-.132-1.621c-.085-.565-.208-.872.508-1.073a9.412,9.412,0,0,1,1.829-.034c-.13.008.125-.691.386-1.282a4.081,4.081,0,0,1,.414-.788,3.234,3.234,0,0,1,1.907-.642c.052-.676-.9-1.578-1.262-2.118a45.085,45.085,0,0,1-2.791-5.3,11.29,11.29,0,0,1-1.066-6.868c.686-3.138,3.541-5.535,6.491-6.493,2.821-.916,5.9-.595,8.741-1.45a16.887,16.887,0,0,1,7.192-.023c1.808.282,3.59.764,5.41.951,1.292.134,2.579.1,3.864.226,1.661.161,3.348.6,5,.876,1.761.29,3.443.923,5.2,1.244a19.162,19.162,0,0,1,5.159,1.193,26.536,26.536,0,0,1,5.493,3.267c1.26,1.033,2.7,1.958,3.917,3.068a24.239,24.239,0,0,1,3.456,4.528,14.836,14.836,0,0,1,2.269,10.465c-.412,2.15-1.256,4.424-1.407,6.615a12.439,12.439,0,0,0,.492,4.333,17.339,17.339,0,0,1,.933,5.035c-.12,1.573-1.377,2.912-1.429,4.5-.04,1.25.753,1.906,1.587,2.678.137.132,1.733,2.166,1.115,2.2a19.244,19.244,0,0,1-3.058.129c.076-1.4-2.218-2.3-3.5-2.3-.643,0-1.294-.033-1.936,0a5,5,0,0,1-.9.027c-.492-.083-.424-.264-.9-.424a7.432,7.432,0,0,0-2.2-.25c-.672-.031-1.3-.391-1.912-.363-.774,1.492-2.508.457-3.614,1.29-.074.477-.355,1.687-.793,1.786-.669.151-1.049-1.073-1.939-.909-.94.172-2.811,2.089-2.691,3.209.171-.033.435.073.606.04.185.954-1.158.605-1.768.645a4.122,4.122,0,0,0,.39,1.9c.073.013.142.027.218.042a2.874,2.874,0,0,0,0,.347c-1.084-.2-.93,1.016-1.138,1.7-.185.609-.665,1.092-.628,1.783.216.006.4.17.605.173a23.8,23.8,0,0,1-.318,3.073.821.821,0,0,1,.756,1.307C513.579,398.581,511.948,399.1,511.458,399.344Z" transform="translate(-471.445 -331.623)" fill="#ccc" stroke="#fff" stroke-width="3.543"/></svg>