<svg xmlns="http://www.w3.org/2000/svg" width="168.586" height="133.674" viewBox="0 0 168.586 133.674"><path d="M385.446,197.544c-.231.229-.529.366-.774.59-.04.036-.275.041-.368.109-.128.094.092.35-.109.45-.864.427-1.008-.361-1.357.7-.25.766-.1.956-.973,1.06-.659.079-1.358-.027-2.018.015.033.787-.984.65-.9,1.616a5.172,5.172,0,0,1-2.308-.545c-1.238-.4-2.682.346-3.9.755a23.374,23.374,0,0,1-4.77,1.268c-1.443.161-2.907-.748-4.235-1.277a55.656,55.656,0,0,1-21.824-15.3,54.913,54.913,0,0,1-7.13-10.688c-1.715-3.348-3.938-7.939-4.65-11.757-.967-5.189.073-9.969-1.744-15.118-3.008-8.493-9.112-15.957-9.55-25.232-.589-12.39,2.26-20.143,10.584-29.335,10.38-11.46,25.555-14.112,40.52-13.085,35.255,2.42,65.634,14.014,96.125,30.48,11.915,6.434,16.988,24.71,17.695,37.526.585,10.617-3.5,20.6-8.5,29.74-4.231,7.74-7.735,16.112-12.865,23.335a22.613,22.613,0,0,1-7.753,6.752,23.86,23.86,0,0,1-4.879,2.049c-1.64.451-3.629-1.541-4.966-2.448a15.564,15.564,0,0,1-1.862-1.487c-.54-.512-.879-1.158-1.482-1.644-1.089-.869-2.1-1.208-2.852-2.346a4.906,4.906,0,0,0-1.664-1.714,4.709,4.709,0,0,0-2.029-.109c-.758,0-.771-.027-1.186-.557-.349-.449-.348-.721-1.041-.8a2.217,2.217,0,0,0-1.63.455c.1-.529.3-1.255,1.035-1.147.275-1.23,1.734-6.366-1.341-4.728-.249.133-.413.468-.6.564-.246.122-.528.011-.752.114-.484.222-.472.809-1.065.97-.529.143-1.111-.251-1.645-.293-.571-.045-1.159.021-1.728-.015a10.8,10.8,0,0,0-.089-2.117,5.541,5.541,0,0,0-1.206-1.813c-.5-.58-1.5-.8-1.914-1.38-.369-.509-.166-1.384-.206-2.018-.972-.214-2.047.873-2.889,1.147a19.7,19.7,0,0,1-3.581.973c-1.409.168-2.6.081-3.509-1.043-.441-.543-.532-.918-1.234-.994-.657-.072-1.421.129-2.115.08-.17-.774-1-1.148-1.353-1.75-.456-.787-.26-.895-1.275-1.041a4.155,4.155,0,0,1-1.96-.46c-.651-.5-.3-1.172-.573-1.848-1.616-.108-3.234-.208-4.922-.208-1.581,0-3.369-.4-3.886,1.339-.82.557-.482,1.833-1.371,2.356-.758.446-2.006.137-2.854.191a3.2,3.2,0,0,1-.5,1.246c-.132.131-.353.149-.5.27-.218.172-.331.4-.54.6-.4.386-.437.5-1.1.218-.56-.237-.677-.5-.963-.978a3.6,3.6,0,0,0-.934.1,4.224,4.224,0,0,0-.39,1.81c.838.056,1.254-.049,1.437.886a8.194,8.194,0,0,1-.194,2.129C386.235,195.485,386.36,196.639,385.446,197.544Z" transform="translate(-316.991 -79.79)" fill="#ccc" stroke="#fff" stroke-width="3.543"/></svg>