<svg xmlns="http://www.w3.org/2000/svg" width="103.536" height="83.338" viewBox="0 0 103.536 83.338"><path d="M894.665,864.74c-6.747-.96-12.971-3.75-18.863-7.069-2.818-1.587-5.549-3.8-8.432-5.183-2.6-1.248-5.826-.93-8.328-2.435-2.554-1.538-3.758-5.7-5.108-8.083-2.261-3.987-5.359-6.956-7.165-11.255a51.205,51.205,0,0,1-3.362-12.065c-.407-2.686-1.4-5.343-1.25-8.09a7.951,7.951,0,0,1,1.17-3.54c.459-.875.594-2.476,1.567-2.971a5.337,5.337,0,0,1,2.662-.195,3.732,3.732,0,0,1,2.373.864c1.505.969,3.479.549,5.163.665,1.075.074,2.126.125,3.23.129,1.641.007,1.589-.42,1.694-1.916a3.952,3.952,0,0,1,2.186.984c.374.4.307,1.367.884,1.737,1.227.788,2.553-1.876,4.015-.683,1,.815-.3,2.652,1.153,3.619a5.885,5.885,0,0,0,3.853.755,9.528,9.528,0,0,0,.168-1.9,4.016,4.016,0,0,0,1.916-.242c.823-.5.4-1.1.9-1.709a1.632,1.632,0,0,1,1.941-.234c.431.346.4,1.415.9,1.884a6.025,6.025,0,0,0,2.064.936c1.081.057.74-.613,1.384-1.074.8-.573,3.267.249,3.025-1.62a7.366,7.366,0,0,1,3.849-.8c1.089-.011,1.054.073,1.42-.774.439-1.017-.1-.807,1.161-1.033,1.03-.184.839-.2,1.032-1.162.067-.331-.046-.63.091-.932s.573-.428.689-.736c.282-.731-.4-1.367.379-1.819a6.28,6.28,0,0,1,2.175.024c.034,1.8,3.178.34,4,.263.1.159.165.14.259.259.219,1.123,1.13,1.022,1.551,1.783.3.544,0,1.933.039,2.564,1.51.388,2.915-1.8,3.078.923.031.513-.244,1.815.152,2.2.54.526,1.67-.421,1.806.746,2.236.417,1.264-2.375,2.043-3.371.153-.2.618-.331.75-.507.266-.352.013-.758.383-1.042.882-.676,1.333.51,1.338,1.306a2.241,2.241,0,0,0,2.455-1.9c1.017.148,1.605,2.029,2.8,1.38.181-.911-.5-1.4.407-1.783.976-.416,1.288.5,1.549-.775a21.069,21.069,0,0,0,.258-2.194c.034-.331-.124-.859.025-1.161.263-.526.7-.3,1.01-.646.935-1.019-.027-2.681.251-4,.285-1.339,1.38-.654,2.063-1.249a13.9,13.9,0,0,0,1.186-3.116c1.049-.076,2.136.024,3.186-.042.16-.6-.331-1.352.621-1.326.014-.123.041-1.441.073-1.444a4.987,4.987,0,0,1,3.714.984,6.289,6.289,0,0,0,2.628,1.615c.907.184,1.653.049,2.473.676,3.063,2.347,3.234,7.271,4.624,10.68,1.782,4.364,3.557,9.429,1.214,13.9a66.709,66.709,0,0,0-5.354,12.333c-.9,2.96-2.789,5.434-3.648,8.4-1.531,5.285-2.522,10.767-4.219,16.044C922.948,865.793,908.614,866.731,894.665,864.74Z" transform="translate(-840.374 -783.867)" fill="#ccc" stroke="#fff" stroke-width="3.543"/></svg>