<svg xmlns="http://www.w3.org/2000/svg" width="100.783" height="158.747" viewBox="0 0 100.783 158.747"><path d="M414.153,1224.907a3.616,3.616,0,0,1,.2-.549c1.115-2.425,3.428-1.549,5.44-1.551,1.465,0,2.9.549,4.319.469.089-1.369-.147-2.763-.082-4.164.049-1.057-.106-3.077.5-3.935,1.189-.089,2.057.1,2-1.357-.339-.023-.695-.007-1.034-.029-.281-.782-2.164-.644-2.894-.743-1.461-.2-2.528-1-3.981-1.1-.372-1.906,2.31-.974,3.357-1.376.169-.508.707-1.573,1.357-1.527.089-.353.024-.815.385-.97a.727.727,0,0,0-.748-.968c.315-.79-.35-1.586-.17-2.388.367-.024.75-.005,1.111-.029.211-1.178-1.1-1.645-.395-2.8a3.829,3.829,0,0,0,.6-.961,4.64,4.64,0,0,0,.1-1.357c.005-.5.634-2.111.276-2.521-.185-.213-.877-.089-1.145-.182s-1.034-.508-1.051-.815c-.029-.521.855-.62.936-.951a.56.56,0,0,1,.677-.388,5.36,5.36,0,0,1,.861-1.631c.347-.583.849-.911,1.213-1.546.492-.862,1.038-.476,1.742-1.057.356-.292.376-.559.847-.686a6.413,6.413,0,0,1,1.05-.015c.363-1.3-2.221-1.244-2.965-1.244a3.915,3.915,0,0,1-1.766-.143c-.315-.17-.2-.366-.579-.538a2.675,2.675,0,0,0-.856-.108c-.21-1.1.69-1.139,1.52-1.161a3.749,3.749,0,0,1,.109-1.236c.3-.654.558-.46,1.248-.507.031-.566-.008-1.149.027-1.713.938.172,1.243-.677,1.749-1.179.623-.617.948-.551.947-1.545a7.176,7.176,0,0,0-.506-2.033c-.239-.913-.234-1.137.782-1.176a12.37,12.37,0,0,0,0-1.52c-.637-.036-.39-1.531-.358-2.032.191.04.458-.068.648-.029a1.145,1.145,0,0,0,0-.551c-.95-.057-1.925.03-2.875-.029.049-.587,0-.734-.5-.959-.362-.162-1.049.2-.856-.56.781.1,1.1-.746.669-1.378a2.7,2.7,0,0,0-2.12-.75,4.367,4.367,0,0,0-1.1,1.611c-.739.343-.885.718-1.428,1.2-.27.246-.77.325-1.055.605-.185.185-.277.2-.412.435-.07.115.023.348-.093.48-.429.492-1.224.315-1.839.117-1.229-.4-2.635-.309-3.073,1.21a.989.989,0,0,1,.863.766,5.818,5.818,0,0,1-.031,1.281c-.308.024-.631.008-.939.028-.024.426.158,1.032.014,1.369a4.876,4.876,0,0,0-.531.459,5.165,5.165,0,0,1-.54.215,2.468,2.468,0,0,1-2.618.057c.021-.232-.056-.508-.031-.743a2.565,2.565,0,0,0-.262,0c-.029.46-.282,1.323-.04,1.746.315.55,1.372.524.642,1.331-.549.605-1.363.347-1.7,1.338-.123.362.082,1.024-.557.879-.288-.065-.7-.92-.791-1.132-.812.073-1.446-.426-2.309-.308-.822.111-.951.436-1.259,1.065-.172.349-.573.669-.681.971s.17.792-.078,1.047c-.38.389-1.21.008-1.541-.08a2.292,2.292,0,0,0-.975-.179c-.174.664.437,1.025.372,1.731-.043.474-.35.746-.387,1.159-.076.849.265,2.205,1.146,2.436.014.517-.494.831-.557,1.332-.74-.419-1.1-1.1-2.041-1.234a13.8,13.8,0,0,1-1.654-.019c-.455-.126-.492-.367-.879-.605-.283-.175-1.642-.19-1.709-.347.057.134.013.417.065.549-.8.381-2.173.057-3.064,0-.159-.365-.487-.46-.725-.815-.176-.264-.18-.552-.351-.817a1.056,1.056,0,0,0-1.247-.564c-.244.45-.92.249-1.371.156-.625-.124-.606-.121-.94-.581a1.9,1.9,0,0,0-2.047-1.028c-.036.565.037,1.139-.01,1.7a3.146,3.146,0,0,1-.258.831,1.954,1.954,0,0,0,.184,1.686,2.772,2.772,0,0,1,.541,1.847c-.854.444-1.179,1.082-.731,1.906.227.417.453.509.522,1.052.058.464-.121.944-.063,1.415.045.379.324.756.1,1.091a1.028,1.028,0,0,1-1.056.244c-.333-.2-.186-.756-.5-.976-.242-.17-.777-.07-1.055-.055-.026.4-.009.824-.02,1.229-1.917.121-4.631-.679-6.465.032.065.284.377,1.015.19,1.344-.219.383-1.234.527-1.657.479-.684-.077-.611-.335-1.062-.768-1.279-1.229-3.039-1.3-4.735-1.145.492.22.3,1.4.266,1.9-.234-.024-.508.047-.745.026-.057.906-.218,1.863-1.077,2.215-.36.149-.86.083-1.239.214-.539.186-1.58.4-1.778.931a2.218,2.218,0,0,0-1.628.619c-.588.666-.058.96.476,1.412-.865-.008-1.637.453-2.59.392-.052-.782.024-1.388-.86-1.633-.659-.184-1.879-.071-2.157.487-.114.226.095.774-.109.976s-.669.042-.956.089c-.934.142-.831.539-.884,1.343-.882.2-1.054-.8-1.907-.745a1.916,1.916,0,0,0,.977,1.9c.5.419,1.287,1.127.751,1.767-.308.368-.606-.024-.779.577a2.453,2.453,0,0,0,.1,1.065c.176.684.851,1.464,1.178.4,1.057-.214,1.2.831,1.82,1.443.536.524.669.441.68,1.25,0,.118,0,.234,0,.351.007.363.008.729-.018,1.087a6.806,6.806,0,0,0-2.778.419c-.45,1.718,1.52.825,2.085,1.67.541.811-.958,2.387-1.7,2.492-.034.53,0,1.082-.029,1.614-.872.053-1.391-.484-2.2-.359.01.057,0,.2,0,.259a.865.865,0,0,1,.648.779c-.815-.153-1.148-.364-1.948.084-1.057.593-2.631.936-2.245,2.4a7.88,7.88,0,0,1,1.53.021c.635.186.54.333,1,.806s2.009,1.913.793,2.421c.444.646-.31,2.052-.351,2.816,1.056.266,1.744.885,1.509,2.067-.7-.058-.371.406-.739.573a3.432,3.432,0,0,1-1.287.238c-.113,1.081,1.525.534,1.121,1.767l-.218.042a7.609,7.609,0,0,1-.145,2.464c-.149.295-.639.371-.79.739a5.141,5.141,0,0,0-.008,1.141c-.771.175-1.148-.627-1.887-.75.077.218.014.637.081.879a18.169,18.169,0,0,0-4.478.424c-.166,2.638,1.8,4.156,2.96,6.268,1.281,2.328,1.153,5.881,1.25,8.5a174.28,174.28,0,0,0,1.71,19.956c.834,5.43,1.985,10.865,2.865,16.266,5.7-1.686,10.243,7.343,13.811,10.781,8.227,7.929,18.068,15.775,29.309,18.572,4.718,1.172,9.946,2.993,14.866,2.686,4.315-.272,8.756-2.6,12.663-4.281,6.239-2.682,14.888-7.69,13.2-15.887a43.648,43.648,0,0,0-1.79-4.772,15.214,15.214,0,0,1-.331-5.374,20.506,20.506,0,0,0-.13-4.092c-.3-1.817.621-1.894,2.172-1.992a.89.89,0,0,0,0-.46c-.666.05-2.025-.595-1.246-1.194s1.715.288,2.121.846c.282.383.8,1.305,1.349.626.5-.609-.331-2.087-.277-2.8.1-1.342.774-1.2,1.921-1.271-.058-.476-.226-1.526.484-1.548.07-.611.095-1.041.208-1.633a4.813,4.813,0,0,0-.021-1.841c-.424-.613-3.023-.25-3.837-.3.048-.412-.327-.811-.4-1.244a7.134,7.134,0,0,1,0-1.161c0-.779.057-1.589.1-2.315.089-1.522-.634-1.138-1.842-1.073-.6.029-1.816-.222-1.851.664a.89.89,0,0,1-.462,0,12.93,12.93,0,0,0,.17-1.909c-.449-.073-.643-.388-1.15-.4-.328-.008-.524.3-.945.183-.736-.686.042-.763.644-.771.027-.8.065-1.589.088-2.381s.208-1.138-.472-1.444c-.589-.266-2.295-.261-2.133.725a2.153,2.153,0,0,1-.745,0c-.071-1.157.713-1.5.648-2.683a2.147,2.147,0,0,0-.745,0c-.024.309-.008.632-.029.94a1.457,1.457,0,0,1-.648,0c.009-.879-1.817-.6-2.427-.546.387.314.3.851.266,1.32-.884.248-.986.615-1.441,1.172-.531.653-1.153.549-1.918.6.01.1-.04.252-.028.359-1.151.073-2.307.006-3.456.028-.026.427.088.87-.394,1.025-.04-.086-.157-.577-.024-.637-.778-.024-.8.04-.976-.691a9.687,9.687,0,0,1-.089-1.632c-1.136-.073-2.1-.2-3.179-.3-1.242-.119-1.331-1.654-2.7-1.342a8.619,8.619,0,0,0-.014,1.536c.041.338.4,1.169.1,1.437-.356.324-2.57.034-3.089,0a4.745,4.745,0,0,1,.389-2.2c1.582-.2,1.428-1.448.548-2.434-.492-.551-1.211-.363-1.341-1.067-.06-.331.206-.994.182-1.435-.544-.176-1.2-.725-1.811-.706a9.273,9.273,0,0,1,0-.939,3.163,3.163,0,0,1,3.154,2.041c.109.239.218.788.433.947.282.207.624,0,.945.095.847.246.831.718.888,1.534a.614.614,0,0,0,.874-.549,2.794,2.794,0,0,1,3.347,1.248c.4.7.5,1.509,1.541.913.707-.407.734-.882.137-1.494-.427-.441-.892-.19-1.265-.5-.463-.389-.05-1.581,0-2.115.1-1,.514-1.07,1.449-1.065.7,0,1.8.17,1.537-.858-.685-.04-1.248-.99-1.44-1.559-.15-.444-.036-.7-.384-1.054-.153-.153-.569-.132-.755-.3a4.732,4.732,0,0,0-.019,1.347c.07.278.514.812.372,1.068-.386.7-.771-.363-.957-.576-.348-.4-.413-.385-1.047-.408.017-.563-.117-1.113-.1-1.69-.1.061-.17.037-.281.073-.211,1.077-1.942.237-2.613.367-1.073.207-.827,1.012-.907,1.928a10.127,10.127,0,0,1-1.222,0c-.193-.81-1.593-.137-2.143-.365-.691-.292-.357-1.306-.4-2.025-.8.158-.806-.5-.939-1.066a1.147,1.147,0,0,1,.26-.026c.146-.266.144-.232.387-.39a.826.826,0,0,1,.97-.771c.25-1.064-.551-.62-1.05-.564-.972.1-1.023-.637-1.824-.891.056-1.068-.654-.72-.985-1.432a3.959,3.959,0,0,1-.1-2.04,18.643,18.643,0,0,0,.506-2.02c.223-.017.4-.153.646-.121a9.83,9.83,0,0,1,.225-2.121,7.835,7.835,0,0,0,.163-2.01c-.581-.039-1.04.116-1.359-.3a2.425,2.425,0,0,1-.16-1.534c.46-.024.542-.595.686-.951.513.573.887,1.4,1.622,1.734s1.075-.085,1.739-.2a3.578,3.578,0,0,1,1.264-.024c.269.088.429.441.689.538.779.288,1.521-.551,1.825-1.209a6.686,6.686,0,0,0,.17-5.01c-.313-.623-.083-.382-.75-.6-.617-.2-.549-.04-.774-.678a6.118,6.118,0,0,1-.581-2.226,12.1,12.1,0,0,1,.267-2.323c.217-1.169.42-1.008,1.557-1.08a4.658,4.658,0,0,0-.188-1.323C413.934,1227.288,413.848,1225.968,414.153,1224.907Z" transform="translate(-345.837 -1167.585)" fill="#ccc" stroke="#fff" stroke-width="3.543"/></svg>