<svg xmlns="http://www.w3.org/2000/svg" width="74.245" height="109.946" viewBox="0 0 74.245 109.946"><path d="M382.64,1478.161a.3.3,0,0,1,.263.073c.2.175.067,1,.083,1.25.639-.275,1.395.677.678,1a.709.709,0,0,0,.84.646c.258-1.055.549-1.168,1.469-.566.36.235.692.245.585.875-.057.35-.534.207-.379.755.4.024.828,0,1.234.029.026.345,0,.7.039,1.047a3.718,3.718,0,0,1,1.316-1.146,3.98,3.98,0,0,1-.073,1.537c.843.194.893.721,1.265,1.436a1.111,1.111,0,0,0,.547,0c.133-.89,1.872-.654.815.426-.275.282-.762.45-.7.948.04.342.391.392.492.675a2.789,2.789,0,0,1-.008.7c-.008.786-.121,1.179.774,1.333.573.1.9-.083,1.382.266a4.648,4.648,0,0,1,1.438,2.815c1.345-.131,2.025,1.734,3.293,2.047.593.146,1.488-.287,1.928.266.286.364.075,1.252.376,1.673a4.2,4.2,0,0,0,2.716,1.25,5.078,5.078,0,0,0,1.447-.1c.53-.1,1.2-.585,1.732-.462.045.661-.012,1.346.029,2.007a3.281,3.281,0,0,1,1.817.033c.683.279.68,1.476,1.056,1.514.01-.057.022-.108.033-.162.7-.18,1.032.766,1.515,1.123.508.377.806.266,1.476.3.642.04,1.067.094,1.251.686.23.719-.033.858.583,1.428a17.67,17.67,0,0,0,4.058,3c1.424.7,2.96.539,4.231,1.428,3,2.105,6.139,4.038,8.929,6.429,3.815,3.283,8.09,6.554,9.205,11.672,1.517,6.929,2.237,14.235.96,21.254-1.025,5.638-4.317,10.5-4.364,16.257-.039,4.861-2.44,9.372-5.144,13.333-1.5,2.2-3.232,5.905-5.828,6.961-3.77,1.534-9.644-1.831-12.718-3.693-9.72-5.884-13.861-18.026-18.043-27.948-4.456-10.578-8.784-21.208-13.206-31.8-4.216-10.087-4.251-21.067-7.606-31.421-.615-1.9-1.8-3.556-2.491-5.425-.2-.541-.815-1.912-.637-2.493.224-.734,1.432-.795,2-1.167a11.694,11.694,0,0,1,5.8-1.637,13.33,13.33,0,0,0,2.713.008C382.053,1478.56,382.362,1478.211,382.64,1478.161Z" transform="translate(-369.511 -1476.379)" fill="#ccc" stroke="#fff" stroke-width="3.543"/></svg>