<svg xmlns="http://www.w3.org/2000/svg" width="53.585" height="95.69" viewBox="0 0 53.585 95.69">
  <path id="IN-KL" d="M139.909,665.253l2.621-.768.342.64-.5.652.574.149-.106.291.891-.117-.039,1.165.739-.135.063-.669,1.351.457-.161.917.339.347.885-.172.449,1.331,1.126-1.044,1.071.564-1.068.448.09.979,1.125.595.125.729,1.542-.866.168.781-1.17.179-.021.95,1.168.857-.047,1.711,1.331.005,1.97,2.882,1.219.178.572,1.09.82-.194.323.813,1.73-.193.517,1.848,1.1.926,2.464.37,2.375-1.006,0,2.539,1.59-.268.722,1.354,1.12-.074,1.318,1.549,1.521-.482.235.771-.471.34.566.887h0l.028.766-.937.019-.626.843-1.093.391-.564-.606-.946.6.3,2.224.794-.316.9.634.268-.3,1.606.533.795,1.107,1.279.737.6-.1.042,1.257-1.963,1.313.133,1.066.73-.479,2.834.363,1.547-.969.6.477-.72,1.364,1,.492-.034,1.564,1.159.108-1.8.233-1.2,2.271,3.525,1.321.479,1.146,1,.165.193.616-.879,2.021.358.97-1.416.065.518.874-.469,3.6.67,1.168-.412,1.362.4.372.539-.263-.042.486.9.894,1.367.341,1.418-.835.279-.789,2.326-1.285,1.239.127-.16.729.755,1.1-.084.7.71.282L190,721.181l-1.507.562,1.262,1.527.229,1.412-.509.223-.745,1.622.514.358-.309.728.524.549-.506.182-.033,1.229-.383.13-.8,2.311.922.039,1.237.827,1.032-.592.429.629.337-.672.2,1.45.957.627-.37.966-.928.415-.48,2.175-.569.01-.362.77v1.729l-.632.625.317.762-1.17,1.149-.288,1.094-1.045.52,1.005,1.365.005.658.508-.035.8,1.224-.593,1.758-.8.857-.444-.054,2.3,4.209-.369.759-1.278.168.481,1.17-1.563,1.244.52,1.389-.79-.22-.533.523h0l-2.545-1.831-7.182-9.488-1.791-1.392-.576-2.444-3.785-8.375-2.1-11.593.332-.088.889,1.683,1.359,1.442,0,2.557.617.427-.692,3.265.546.4V733.7l2.483-.111-1.8-.732.3-.955-.186-.826-.39.064.233-1.043-.652-.141-.11-3.406-.779-1.155-.343.111.245.64-.349-.1-1.448-2.979.314-1.045-1.233-1.432.791,3.509-.407.082-2.611-8.528-3.96-8.71-1.1-4.789-2.552-7.1-1.111-2.015-1.367-.613-1.57-4.347-2.872-3.322-1.041-.455-1.873-3.111-.738-.387-.611.4-.413-1.908-4.361-8.593Z" transform="translate(-139.573 -664.188)" fill="#ccc" stroke="#fff" stroke-width="0.5"/>
</svg>
