<svg xmlns="http://www.w3.org/2000/svg" width="191.124" height="142.946" viewBox="0 0 191.124 142.946"><path d="M367.1,779.6a7.4,7.4,0,0,0,2.251-3.983c.218-.876.54-2.67,1.525-3.041,1.738-.656,1.654,1.918,2.9,2.311.064-.15.107-.286.171-.436a5.181,5.181,0,0,1,1.857.3c.939-1.6,3.525-1.4,4.835-2.3,1.847-1.282-1.686-2.292-2.883-2.743,1.042-1.043.351-1.379.405-2.638,1.805-.713,3.739-1.2,5.434-1.922,2.134-.906,2.222-2.877,2.083-5.081a7.147,7.147,0,0,1,.005-2.715c.25-.872,1.093-1.333,1.363-2.116.363-1.073-.354-1.645-.6-2.37a10.213,10.213,0,0,1-.412-2.837c-1.134-.073-2.3.012-3.44-.058.377-.581,1.126-1.048,1.344-1.709.29-.879-.487-1.8.561-2.315-.282-.7-1.315-.985-2.085-1.008a6,6,0,0,1,0-2.3c.288-.573,1.493-.733,1.67-1.189.3-.79-1.954-3.31.589-2.835-.121,1.2.557.479,1,.925.492.494.815,1.379,1.713,1.148-.073-2.317-3.977-3.972-2.444-6.525,1.319.435.809,2.073,2.283,2.491a2.488,2.488,0,0,0,2.757-.767c.546-.928-.11-1.848.916-2.578.863-.613,2.439-.366,3.461-.3a23.27,23.27,0,0,1,0,2.847c-1.467-.187-1.089,1.363-1.16,2.324-.685.016-1.4.412-1.331,1.19.093.965,1.164.848,1.939.965,1.613.242,3.154.315,4.811.417-.052.254.109.654.058.911-.141.7,2.044-.885,2.006-.861a4.007,4.007,0,0,1,3.162-.823c.073,1.127-.009,2.3.062,3.423a4.894,4.894,0,0,0,1.834.282c.029.345.074,2.963-.352,3.009a1.955,1.955,0,0,1-1.747-.518c-.87.24-1.306,1.605-1.146,2.414.137.7.75.127.9.531.686,1.86-1.219,2.884.283,4.383.493.492.969-.069,1.138.734-.652.227-.895.8-1.525,1.009a8.855,8.855,0,0,1-3.251.549c-.831-.153-1.62-1.44-2.371-.37a10.3,10.3,0,0,0-.154,3.464c2.192-.04,1.969.995,3.47,2,.315-.642.057-1.589.406-2.323,1.14-.271,2.563.208,3.805.132a1.183,1.183,0,0,1,1.359-.776c.137-.9-.46-1.455-.522-2.261,1.549-.625,1.794.051,2.638-1.429A7.913,7.913,0,0,0,409.717,751c1.47-.476,2.779.191,4.235.553a39.778,39.778,0,0,1,4.223.754c-.072-.315.121-.794.058-1.113.549-.018,1.133-.04,1.679-.06.063-.1.153-.293.184-.34.063.548.06,1.144.073,1.7.859.029,1.363.609,2.265.444-.113.8.25,1.637,1.162,1.491.015-1.218,2.143-1,2.124-2.26-1.62-.429-.951-5.512-1.495-6.962,1.787-.383,2,1.621,3.47,1.125.887-.3,1.253-2.111,1.157-3.1-.163-1.68-1.057-1.91-2.517-2.129-1.575-.238-1.934-.584-2.492-2.095,1.4-.111,2.864.091,2.261-1.737-.143-.432-.79-.748-.942-1.189a6.876,6.876,0,0,1,.04-2.108c1.58-.1,3.175.2,4.751,0,1.45-.183,2.1-.961,3.365-1.508-.109.4.08.871.014,1.251a9.992,9.992,0,0,1,2.072-.386,44.59,44.59,0,0,0,.011-4.59c-1.377.2-.92-1.444-.979-2.322-1.918-.057-2.036.674-2.521,2.259-.917-.182-.969-.766-2.1-.711-.217.009-.981.476-1.355.553a7.3,7.3,0,0,1-1.355,0,14.227,14.227,0,0,1-4.888-.532c-1.94-.686-2.588-.773-2.856-2.952a6.671,6.671,0,0,0-.92-2.709,17.6,17.6,0,0,1-.8-2.49c1.67.2.848-2.065,1.756-2.7a8.088,8.088,0,0,0,2.484-.613c1.158-.45,1.092-.407,1.746-1.544a9.707,9.707,0,0,1,3.727-4.017c.829-.4,1.772-.25,2.613-.686.909-.474.947-1.241,1.589-1.887.982-.99,4.1-1.2,4.684-2.478a7.539,7.539,0,0,0,3.694-1.333c.557-.416.872-1.15,1.446-1.46.7-.379,1.4-.25,2.154-.56.347-3.428,4.595-2.081,6.772-2.51a7.718,7.718,0,0,1,.711-2.109c.759-1,1.6-1.024,2.805-1.347a4.932,4.932,0,0,0,2.315-1.348c3.977-3.519,7.64-3.985,12.764-3.01a76.361,76.361,0,0,1,15.309,5.146c14.081,5.957,28.053,11.8,40.613,20.552,4.806,3.348,11.4,6.3,15.472,10.478,3.686,3.78,1.831,10.221,3.767,14.981,1.524,3.751,3.358,7.617,3.219,11.736-.069,2.029-.218,3.482-1.476,5.076-.976,1.234-2.642,1.625-3.158,3.189-.524,1.589.379,3.626-.137,5.238-.621,1.949-2.343,3.606-3.337,5.346-1.417,2.471-1.7,2.886-.975,5.762.813,3.214,2.241,5.267.992,8.558-1.587,4.17-5.106,7.732-7.227,11.653a84.61,84.61,0,0,1-7.573,11.4c-3.6,4.649-7.558,9.019-10.881,13.882-1.126,1.649-2.121,3.918-4,4.877-2.615,1.331-6.635.928-9.5.9-3.945-.035-8.977,1.1-12.6-.7-3.807-1.9-6.59-5.364-10.706-6.96-9.5-3.686-20.5-4.17-30.446-2.4-17.132,3.059-34.689,4.047-51.837.454a60.285,60.285,0,0,1-19.835-7.524c-4.492-2.622-10.219-4-12.591-8.715-2.388-4.739-2.589-10.983-1.944-16.163C360.7,783.743,363.533,782.843,367.1,779.6Z" transform="translate(-357.934 -690.091)" fill="#ccc" stroke="#fff" stroke-width="3.543"/></svg>