<svg xmlns="http://www.w3.org/2000/svg" width="173.064" height="141.807" viewBox="0 0 173.064 141.807">
  <path id="IN-MH" d="M124.815,464.46l1.144.638,1.865-.228.258-.711,1.1-.264.705-.92,1.208-.143.055,1.243.937.374.713,1.025-.5,2.278.159,1.8.861.188.136.813,4.861,1.6,2.319-.44,3.263,1.462,1.2,2.356,2.193,1.089,1.67-.106.047.59,1.245-.313.775.453L152.5,477l1.669.485,1.272-.5,1.35.327,4.494-.431,1.688.126,1.751.923.969-.475,1.267,2.564-.31.47.592,1.112-.123.392-1.107.136,1.228,1.785,1.874-.224.411.432,1.98-.045,1.6-.837.726-1.813,2.847.076.79-2-.765-1.177,3.342-2.938.16-.522-.6-.733.521-.392.157-1.284.8.1.39-.491,1.025.318,3.584-2.734,1.789.213.287-.311.752.745.36-.535,1.226-.142.064-.863,3.961-.2,1.4,1.578.61,1.656-.007,1.442.756.444-.84.291-2.292-.6-.849.525.447,1.346.649.357.371,1.771,2.039.3.426-.056-.068-.594,1.034,0,.34.489.5-.572.3.85.6-.126.336-.47.911-.112.124-.481,1.727.773,1.191-.206,4.827-2.495.243-1.347,1.849-.269-.065-.528.795.512.684-.428.506.274.388-.9.9.374.157,2.243,1.643-.6,1.213.285.384.645,2.824.5.559-.653.539.6.26-.491,1.993.093.333-.349.755.3.184-.589-.758-.921.49-.122-.306-.718,1.7-.591.316.387,1.644.052,1.25-1.374,1.509.218.184-1.637,2.519,1.009.957.1.441-.378,1.523.388,1.006,2.908,2.32-.29,1.782-1.016,2.6,1.6,1.229.145.431-.724,1.2.495,1.466-.445,1.075-1.174,1.534-.608,1.508.314,2.311,2.221.852,1.851-.465.688.3.69.775.1.166-.676.779.1,2.253,1.629,1.327-.134h0l.344.726-.788,1.074-3.726,1.727-.5,1.689.294,1.349-.494.6.666,1.727,1.806-.04.077,3.753.724,1.818-1.518.646-.544.835.634.711,1.16-.607,1.151.19-.76,4.627.665,1.375-1.585.6-.653.826-2.677.619.649,1.142-.585.608.164.416,2.181.113.887.645.121.978-.013,1.739-.527,1.247-.835.068-.77-.551-.783.446.029.588,1.57.155.311.667-1.378,1.294-.714-.132-.06.479,1.209.037.537.453-.187-1.156,1.534.119-.058.988,2.641,1.821-.188,1.767,1.342.086.951.885,1.281.125.372.739.7.224.272,1.178-2.18.86,1.194,1.452-2.005,1.635-1.27.071-.349-.947-1.293.426-.886-2.067-1.931,1.452-.808,1.632-1.124.483.07,1.1-1.294,1.046-.057,1.468-1.139,1.927v1.288l1.692,2.306-1.506,1.3-.72.112.531.918h0l-1.374.45-.271.48-.646-.447-.99.435-2.061-1.99-1.682-.388-.795-1.021.942-.617-.094-3.581-.385-.565-1.183.28-.032-1.53,1.783-1.464-.482-1.229.871-1.567.235-2.282-.687-1.4-2.344-1.6-.9-1.25-.944-.211-2.106.621-.872,1.572-.954-.359-.206-.628-1.512,1.127-2.123-1.628-1.146.126-.2-.544-1.276-.495-.151,1.893-.624.776.337.527-.945.156-1.568-1.485-1.769-.264-.534-.488-.8.226.544-.734-.243-1.417-1.11-.409-1.2.252-.276-2.255-1.272-.451-1.432.265-2.361-1.121-1.62-.093-.677.631-.371-.514-1.644-.443-.283-.947-1-.088-.35-.715-.531,1.459.939.229.6,1.286-.47,1.491-1.245.528-.337.587.864,1.3,0,.716-.671.3.624,2.247-2.653.985.313,1.765-.567,2.1-1.838-.406-.651.286-.113-.641-2.027-1.553-1.843.863.022.4.917.372-.8.264-.436,1.284.248.357-.572.993.357,1-.952-.262-.115,1.115-.743-.236-.09.737.208,1.038,1.042-.021-.093.725.859-.063-.277.9.86.061,1.276,1.9-2.2.326-1.068,2.71-.6-.505-.519.684.076,2.661-1.652.6-.183-.559-1.079.112.079,1.609-.513-.21-.635.447.817.394-1.241.4.613.209-.748,1.5.993.687-.355.583h0l-.847-.337.015.62-.938.405-.607-1.021-1.624-.091,1.074-1.707-.845-.267,0-1.03-.577.381-.517-.516-1.616.99.1.835-1.039,1.269.226.762-.746-.064-.43,1.409-1.14.471.279.928-1.072.008-.52-.688-.186.462-.755-.565-.707.079-.661,1.505.957.416-.445.512.16.746-.773.141-.026,2.584-2.379,1.023-1.3-.649-.067.9,1.061.668-.532.861-.985.113.249.98-.617.239-.159,1.007-.573-.173-1.02-1.757-.863,1.444v-1.264l-1.038.024v.954l-.781.037.062,1.154-1.268.355-.273.878-1.758.2.175,1.141.546.444-.474.607.661.019-.926.539.06.8.827-.046-.234,1.294.964.125-.552,1.254-.61.033-.181-.857-1.418.423-.659-.962-1.508.564.072,1.124-.264-.953-.877-.555-.889.791-.506-.528-2.583.658-.785-.644-.134-1.388-.529.687-.779-.808-.469,1.149-1.367-1.128-.96.2-.285-.989-.878-.427-.414,1.868-.78.2.131.722.592.163-.15.851,1.129.912.047,1.157-.714.831L156.9,571.8l0,.682-.725.575.6.015.049,1.642-.619.2-.719-.4-.024-.729-.706-.1-.114.96-1.629.451-.515-.923-.772.476-.759-.281-1.035.519-1.19-.049-.119,1.752-1.4.737-.684-.037.135-.685H145.65l-1.062-1.634-1.225.5-.034-.346-1.924.012-.238.335.842.44-.066.6-1.091.477.248,1.869-1.441-.019-3.282,1.208-.043.874-.746.813.625.719-1-.05-.135.673-1.3.516-.474-1.763-1.118.143-.432-.741-.1,1.215-1.444.567-.284,1.1-.572-.235.063-.4-.758.078-.32,1.115-.79-.922.2.894-.683.185.327.409.652-.577-.075.946.891.148.079,1.121.554.134-.156.641-.389-.562-.369.247-.051,1.174.538.729-.312.508.407-.516,1.422.244.027.5,1.688.572.205.928-.567.893.068,1.293-1.141-.505-1.391,1.249.458.386.968-.468.711.351-1.641,3.016.412,1.051-.379.018-.4-.861-.62.855.938.171-.512,1.523-1.521.743-.881-.041-.476-.961-.48.7-1.544.767.063.854-.776.163.617.444h0l-2.054.987-.611-.142-.616-.717-.5-2.1-1.317-.17-.355-1.04-.68,1.291-3.2.289h0l-.663-.461.546-.18-1.762-3.424L111.5,596.9l-.558-2.134-.582-.4.256-.367-.669-2.767-.983-3.523-.436-.042.785-.9-.831.163-.018-.916-1.018-1.6.029-.929.523-.217-.541-.753.483-.809-.372-.072-.227-3.591-.715-1.854.36-2.042-.488-.012.267-.557-.616-.332.918-1.112-.674-.75-.89-3.346-.715-.708.687-.085.116.466.343-.563-.773-1.677-.837-.454.808-.739-.413-.061-.041-1.394-.977-1.092.652-.581-.867-1.194-.273-1.25.442-.479-.977-2.009-.262-1.937-.261.134-.7-1.167.174-.88-1.012-1.551.273-.45-.669-1.234.349-1.38L99.38,547.2l.093-1.339.61.03.354.834,1.832.432-.279.773.68.777-.163-1.745-.54-.858-1.291-.067-.878-1.376-.774-.407.256-.694-.646-1.889.692-1.519-1.535-3.4.3-2.368.983.269.512-.781.623.837.255-.434.128-1.24-1.3.33-.39-1.125,1.042-.141-.384-.836.343-.6.494.251,1.11-.8-.616-.053-.209-1.266-.634.019-.151.673-.965.8-.988-.257-.366,1.729-.773.733.331-1.112-.663-.2.477-1.682.25.19.244-.459-.465-.073.227-1.132-.978-1.59-.041-2.486.436-1.151-.866-.985-.273-1.919.744-.626.128-.767-.448.479-.977-.76-.116-1.264.529-.043-1.064-4.341-.761-1,.023-.418.616-.151L93.8,509.5l1.088-.874-.18-2.172.628-1.465h0l1.344.256,0-.521.7.085-.015-.912.835-.888,2.008.3h0l.34.91-.282.9.335.389.591-.481-.152.544.892.946.164-.7,1.651.328.97.7.637-1.531h0l1.523-.61.462-1.278.873.193.309-.33.141.459,1.164-.3-.136-3.236-.672-.846.8-.537,1.486-2.8-.4-.068-.021-.9-.847-.256-.788-1.056.779-.495.288-1.014.605-.15.331,1.418.836-.454,1.442.835.617,1.269.71.376.634-.356.988.245,1.886-1.076.148-1.142-.475-.6.857-.011.46-.785.739.136.6-.418-.093-2.178-1.048-2.228.239-.959-1.885-.287-.182-.592-.688.271-.684-1.005.218-1.306-1.939.127-1.5-1.328.521-.183.486.969.94-.435,1.159.31.1-.644,1.694-.107.2-2.133,1.253.112,1.183-.784.091-2.343.332.23,1.671-.612.39-1.4.875.758.417-.347,1.961.1.135-.46.432.374,1.634-.735.019-1.016-.479-.538-.745.662-.67-.324-.624.421-.459-.634-2.44,0-4.375,1.426-.76-2.294-.772-.6,2.052-.448.225-1.236-1.364-1.4.288-.623-.721-.732Z" transform="translate(-93.258 -462.552)" fill="#ccc" stroke="#fff" stroke-width="0.5"/>
</svg>
  