<svg xmlns="http://www.w3.org/2000/svg" width="188.692" height="151.689" viewBox="0 0 188.692 151.689"><path d="M277.488,1004.054a2.5,2.5,0,0,1,2.759.942c.308.572.686,1.783,1.489,1.812.417.009.964-.427,1.341-.593a3.335,3.335,0,0,1,1.476-.355,2.528,2.528,0,0,0,1.157.005,2.366,2.366,0,0,0,.564-.709c.492-.029,1.008-.008,1.507-.039a6.747,6.747,0,0,1,.3-2.694c.139-.274.444-.2.626-.615a2.214,2.214,0,0,0,.129-.8,7.97,7.97,0,0,1,0-1.419c.25-.867.726-.965.645-2.194-.048-.734-.023-1.976-.981-2.059a7.429,7.429,0,0,0,.621-1.535c1.017-.129.87.6,1.38,1.141.7.741,1.51.472,2.445.536.031.5.008,1.014.039,1.509.849-.073,1.016.252,1.532.813.295-1.144,1.714-.589,2.444-1a1.25,1.25,0,0,0,.6-.906c.007-.143-.911-1.283-.444-1.444.774-.271,1.654-.118,2.412-.428a9.061,9.061,0,0,0-.679-4.5,5.9,5.9,0,0,0-1.605-1.494c-.46-.386-.847-1.144-1.433-1.345-.562-.193-1.186,0-1.734-.156-.234-.066-.492.106-.686-.113-.059-.067-.234-.734-.144-.741a13.794,13.794,0,0,0,2.793-.043c.17-.053.594-.48.829-.589.359-.169.849-.019,1.142-.384.6-.746-.263-1.557.766-2.193.793-.488,2.042-.342,2.945-.571.013-.365.026-.753.04-1.121.76-.051,1.337.131,1.923-.4.764-.693.282-1.064,1.67-.882a3.855,3.855,0,0,0,2.082-.016c.5-.17.705-.447,1.362-.388-1.121-.962-2.007-1.7-3.476-1.686-.941.008-2.129-.237-2.915.29-.524.349-1.194,1.51-2.223.885-.7-.427-.362-2.187-1.39-2.1a2.04,2.04,0,0,1,.991-1.68,11.031,11.031,0,0,0,0-1.635c-.651-.218-1.551-.183-1.249-1.165a8.237,8.237,0,0,0,1.92-.017c.6-.218.618-.884,1.12-1.3.588-.477,1.153-.266,1.847-.379.587-.094,1.008-.589,1.517-.685,1.057-.2,2.476,1.362,3.749.657.61-.336.7-1.72,1.714-1.67.656.033.8.691,1.17,1.105.035.039,1.284,1.073,1.223.733.218,1.193-.063,2.315.472,3.465.476,1.025,1.024,2.227,2.162,2.452,1.376.272,2.375-.44,3.608-.524a9.2,9.2,0,0,1,3.484.493c1.1.446,1.123,1.235,1.642,2.251.333.654,1.155,2.2,1.831,2.525.573.271,1.452-.1,2.073.026a8.287,8.287,0,0,0,1.419.387,6.373,6.373,0,0,0,1.678-.4,3.835,3.835,0,0,1,2.166.525c1.17.42,2.383-.1,3.555-.234a31.924,31.924,0,0,1,3.412-.129,2.079,2.079,0,0,1,1.143.1c.192.118.527.863.589.879,1.409.375,2.461.188,2.557,1.831.057,1.008.556,2.476.234,3.331l-.217.044c.057,1.272,2.831.75,3.718.75.435,0,1.739.23,2.07.008.508-.34.15-1.121.147-1.668a11.4,11.4,0,0,0,2.3-.024c.657-.2.915-.957,1.659-.922.274-1.015-.189-1.3-1.1-1.519.461-.777.964-1.836,2-1.836.1-.927.835-.711,1.309-1.138a2.01,2.01,0,0,0,.276-2.043c.9-.1,1.266-.48,1.168-1.424a4.413,4.413,0,0,0,1.794-.286,13.106,13.106,0,0,1,1.283-.793c.8-.309,3.215-.813,3.123.5.415-.426,1.409-.2,2.016-.239.611-1.111.528-1.684,1.842-1.96.9-.187,2.23-.4,3,.25,1.17.976,1.644,3.2,2.656,4.412a1.733,1.733,0,0,0-1.024.7,2.745,2.745,0,0,1-.25-.879c-.629.492-1.9.059-2.7.105.331.883.747,3.311,1.774,3.445-.063-.667-.027-1.119.665-1.277.886-.2.605.315,1.033.648.732.571.336.328,1.29.262a7,7,0,0,1,1.444.261,9.626,9.626,0,0,0,4.5-.773,6.076,6.076,0,0,1,2.94-.659c.159-1.214,1.1-2.605,2.484-2.319.747.153,1.557,1.024,2.345.531.557-.349.35-1.351,1.239-1.152.04.65-.232,1.925.31,2.407.573.508,1.239-.282,1.541-.855.83-.206,1.734.7,2.343,1.17a2.587,2.587,0,0,0,1.9.745c1.508.073,2.88-.589,4.366-.538.055-.9-.17-1.661-.095-2.541,1.208-.082,2.626.589,3.94.635-.125-.252,0-.506-.062-.765a3.215,3.215,0,0,1,1.25-.17c.137-.476.1-1.492.69-1.762,1.052-.476,1.218.872,1.646,1.3.9.909,2.435-.067,3.234.831.717.8-.2,1.2,1.024,1.452.886.184,2.071-.331,2.971-.389a5.524,5.524,0,0,1,1.7-.04c.8.178,1.575.863,2.331,1.048a12.182,12.182,0,0,0,4.746-.223c.578-.24,1.027-1.433,1.715-1.441.568-.007.293.472.734.637a4.057,4.057,0,0,0,1.153.04c.25.753.7.2,1.153.492.363.241.181.183.438.521.319.42.336.928.772,1.383.535.561.813,1.1,1.259,1.621.761.892,2.159.847,3.233.994.886.123,1.2.063,1.424,1.032a1.64,1.64,0,0,1-.522,1.709c-.518.466-1.144.337-1.67.621-.494.264-.713,1.052-1.409.879.118-.794-.532-.87-1.161-.734.054.573.309,1.073.364,1.656.065.64-.073,1.306.029,1.944.295,1.788,1.461.863,2.267,1.947,1.637,2.2-1.089,4.8-.986,6.8.637.158,1.323-.553,2.154-.476.048,1.12-.315,2.174-.233,3.312a3.333,3.333,0,0,1-.551,2.644c-.244.33-2.566,1.283-2.663.756.129.7-.579.806-.8,1.408a5.5,5.5,0,0,0,.026,1.783,1.369,1.369,0,0,0,1.008-.487,11.589,11.589,0,0,1,1.423.787c.513.5.39.918.391,1.653,0,.587.17,1.394-.227,1.8-.423.44-1.189.238-1.816.282-.177.951.676,1.186.463,1.88s-1.154.654-.587,1.7c.9-.39,1.436-1.546,2.686-.9.928.476.572,1.8,1.654,2.1a7.081,7.081,0,0,0,.286,1.783c.333.887.42.551,1.4.539.024.346.17.642.161.992.973.061,2.3.019,2.95.762.976,1.109-.827,1.394-.5,2.461.234.024.5.247.644.278-.379.331-.862.557-.813,1.143a1.048,1.048,0,0,0-.387.516c-.444.341-.845.347-1.165.774a8.836,8.836,0,0,1-2.559-.235c-.883-.21-1.39-1.869-2.071-1.812-.106.008-.637.683-.768.808-.352.339-.723.524-1.029.839-.612.633-.956,1.363-2.049,1.218a1.823,1.823,0,0,0-.039.347c-.758.2-.54.827-.626,1.442-.042.315.057.621-.129.911-.171.266-.515.137-.647.343a3.6,3.6,0,0,0,.266,3.5c.429.438.925.331,1.16.928a1.061,1.061,0,0,1-.521,1.393c-.976.575-2.405.009-2.041,1.814a3.225,3.225,0,0,1,.878.541c-.831.507-1.863.6-2.706,1.032a18.741,18.741,0,0,0-2.834,1.844,9.284,9.284,0,0,1-3.619,1.41,13.787,13.787,0,0,0-2.75.782,13.411,13.411,0,0,0-1.989,1.736c-1.556,1.363-3.076,2.756-4.578,4.175-11.21,10.591-21.182,22.478-33.115,32.3-9.51,7.826-19.667,17.57-30.95,22.868-10.613,4.983-25.824,6.074-37.241,8.17-15.2,2.786-31.6,5.009-42.567-8.444-9.116-11.188-8.791-27.142-7.676-40.729.88-10.726,1.687-22.239,4.9-32.574,2.21-7.107,6.153-13.352,6.329-20.966.033-1.442-.432-3.87.272-5.182.676-1.258,2.9-1.544,4.178-1.654,1.08-.089,2.114.554,3.072.365A1.275,1.275,0,0,1,277.488,1004.054Z" transform="translate(-255.233 -966.829)" fill="#ccc" stroke="#fff" stroke-width="3.543"/></svg>