<svg xmlns="http://www.w3.org/2000/svg" width="58.26" height="54.677" viewBox="0 0 58.26 54.677"><path d="M1358.918,762.076a17.561,17.561,0,0,1-8.028,1.461c-2.205-.337-4.068-1.957-6.4-2.11-2.145-.144-5.367.846-5.967-2a11.256,11.256,0,0,1-1.118-.444c-.362-.3-.375-.978-.651-1.205-.7-.574-2.412-.343-3.385-.92a5.581,5.581,0,0,0-3.042-.977c-.06-.911.3-2.225-.307-3.009-.507-.654-1.637-.649-2.363-1.054a9.949,9.949,0,0,1-3.742-4.406c-1.525-3.064-2.934-8.044-1.015-11.245,1.457-2.431,3.433-2.515,5.783-3.4,2.847-1.062,3.654-2.354,5.4-4.918,6.751-9.882,27.2-21.974,37.749-10.633,9.644,10.365,2.632,27.014-4.469,36.346C1365,756.668,1362.558,760.389,1358.918,762.076Z" transform="translate(-1320.085 -710.753)" fill="#ccc" stroke="#fff" stroke-width="3.543"/></svg>