<svg xmlns="http://www.w3.org/2000/svg" width="68.769" height="36.933" viewBox="0 0 68.769 36.933"><path d="M1182.6,717.29c-3.438,1.311-8.548.28-11.281,2.858-2.239,2.112-4.112,8.405-4.025,11.43.166,5.654,5.195,7.192,9.917,7.655,6.659.652,13.552,2.409,20.243,1.505,2.88-.389,5.767-.724,8.665-.983a29.781,29.781,0,0,1,4.22-.292c1.214.073,2.412.5,3.63.509.892.006,1.744.162,2.63.193,1.567.055,3.492.281,4.923-.234,1.507-.541,3.016-1.214,4.477-1.821a15.252,15.252,0,0,0,4.816-2.589c.534-.471.981-.656,1.263-1.265a9.99,9.99,0,0,0,.048-4.993,26.827,26.827,0,0,0-2.516-4.432c-1.021-1.315-2.605-2.606-2.7-4.352a12.864,12.864,0,0,0-.975-4.537,12.437,12.437,0,0,0-6.892-6.544c-7.017-2.878-18.544-2.412-25.154,1.605-4.267,2.589-6.251,6.469-11.817,6.036" transform="translate(-1165.518 -705.776)" fill="#ccc" stroke="#fff" stroke-width="3.543"/></svg>