<svg xmlns="http://www.w3.org/2000/svg" width="40.132" height="69.856" viewBox="0 0 40.132 69.856"><path d="M1301.753,839.233c2.166,13.128,15.317,37.6,29.643,21.8,9.187-10.127,6.348-29.4,1.626-41.072-2.8-6.911-6.244-14.652-13.072-17.873-3.115-1.469-8.365-3.359-11.7-1.289-2.832,1.757-6.767,7-6.1,10.458-.065-.339.852.58.931.789.209.55-.19,1.5-.089,2.124.089.566.572,1.138.684,1.831.273,1.681-.557,3.435-.534,5.122.017,1.218.441,2.341.057,3.506-.331,1.017-1.718,1.541-2.1,3.06C1300.364,830.649,1301.235,836.066,1301.753,839.233Z" transform="translate(-1299.076 -798.091)" fill="#ccc" stroke="#fff" stroke-width="3.543"/></svg>