<svg xmlns="http://www.w3.org/2000/svg" width="45.016" height="44.679" viewBox="0 0 45.016 44.679"><path d="M1348.234,679.756c2.354-4.541,7.8-7.816,11.684-10.881,3.284-2.589,6.381-5.4,9.682-7.972,2.285-1.778,4.752-4.135,7.6-1.783.393.328.582.839.993,1.171s1.189.4,1.532.836c.62.782-.029,3.941,2.066,3.565.137,1.954,1.547,3.594,2.063,5.58a56.333,56.333,0,0,1,1.073,6.758c.218,1.637.511,3.267.81,4.9.315,1.707.736,2.638-.423,4.09-1.043,1.309-.773,3.117-1.819,4.31-.877,1-2.411,1.386-3.612,1.825-1.976.724-6.424,1.9-7.652-.76-.419-.907-.054-2.478-.117-3.472a2.911,2.911,0,0,0-1.629.242c-.43.2-.643.614-1.17.664a9.351,9.351,0,0,0-.415,1c-.072.373.167.958.008,1.3-.288.641-1.311.936-2.068,1.026a42.584,42.584,0,0,1-5.162-.129c-.862,0-1.721.006-2.581,0-1.176,0-1.363.153-1.549,1.291a5.9,5.9,0,0,1-.638,2.073c-.282.534-.605,1.325-.923,1.791-.341.5-.806.815-1.246,1.428-.506.706-.163.7-1.162.774a7.617,7.617,0,0,1-3.416-.742c-2.246-.942-4.686-2.206-5.4-4.828a24.4,24.4,0,0,1-.187-3.229C1344.134,686.8,1346.531,683.042,1348.234,679.756Z" transform="translate(-1342.76 -656.488)" fill="#ccc" stroke="#fff" stroke-width="3.543"/></svg>