<svg xmlns="http://www.w3.org/2000/svg" width="136.223" height="116.255" viewBox="0 0 136.223 116.255"><path d="M874.754,963.518c.589,1.858-.057,4.128-.161,6.067-.282,5.322-.524,10.669-1.871,15.85a86.386,86.386,0,0,1-9.923,23.827c-5.174,8.349-13.3,14.128-22.163,18.057-9.091,4.032-18.657,3.149-28.3,3.408-3.59.1-6.746,3.69-10.075,5.35-3.638,1.815-7.471,3.2-11.163,4.891-5.283,2.426-10.8,4.152-16.14,6.409-7.272,3.073-14.317,5.921-22.464,4.993-2.639-.3-6.208-1.976-8.471-3.344-2.419-1.464-2.136-4.937-.2-6.642a3.909,3.909,0,0,1,1.379-.791c.409-.131,1.3.019,1.626-.177.255-.152.722-.925,1.03-1.181,2.517-2.1,2.327-2.953,2.546-6.221,1.16-.224,1.389-.9,2.054-1.431.488-.391.308-.523,1.015-.731.421-.124,1.186.218,1.557.012,1.175-.649,1.867-3.573,2.724-4.433a13.034,13.034,0,0,0,1.884-.255c.159-1.6-.142-1.994-1.461-2.734.819-.259,1.785-.19,2.623-.363.079-1.473,1.444-.812,2.17-1.554.571-.578.647-2.412.591-3.228a8.552,8.552,0,0,0,1.494-.1c.173-2.587-.492-4.7-.938-7.09-.2-1.083.163-2.509-.043-3.484-.255-1.208-1.421-.934-1.734-2.289-.377.073-.911-.136-1.292-.062-.1-1.94.976-3.07,1.136-4.811.236-2.662-2.218-.788-2.353-2.876a5.716,5.716,0,0,1-1.678.132c-1.042-1.743.324-3.174.379-4.972.889-.056,2.54-.427,2.323.911,2.363.149,4.628-.329,6.525,1.03.065,1.031-.573,3.711,1.161,3.229-.347-2.005,3.154-1.47,4.259-1.1.045.746.008,1.523.057,2.266,1.108.2,1.492-.6,2.067-1.168a8.238,8.238,0,0,0,.037-2.482c-.46-1.5-.331-.561-1.67-.573a13.26,13.26,0,0,1-4.106-.815c-1.076-.463.734-6.945.605-8a2.581,2.581,0,0,0-.708-1.589c-.218-.311-.825-.2-1.025-.524-.25-.394-.123-1.277-.156-1.734a56.442,56.442,0,0,1-.073-7.647,1.838,1.838,0,0,1,1.1.2c.047.75.621,1.829,1.577,1.527.411-.125,1.122-1.661,1.363-2.141a11.739,11.739,0,0,0,1.377-5.2c2.019-.125,3.966.17,5.973.168a11.729,11.729,0,0,1,2.86.026c.35.1.516.62,1.012.747a5.706,5.706,0,0,0,1.519-.027,9.445,9.445,0,0,1,.771-2.1c.178-.56-.029-1.688.219-2.138.573-1.008,2.462-.53,3.654-.605.185-1.024-.627-1.006-.9-1.751a6.292,6.292,0,0,1,.155-2.864c.228-1.22.5-1.2,1.153-1.944.091-.1.482.137.593-.024.175-.256.1-.615.189-.748.315-.476-.75-.911.355-1.195a2.629,2.629,0,0,1,1.38-2.341c.373-.25.8-.458,1.16-.7-.636-1.311-2.259-1.92-1.354-3.665.159-.309.792-.284.981-.569.224-.334-.029-.941.17-1.222a13.688,13.688,0,0,1,3.828-2.945c.645-.407,1.172-1.021,1.831-1.395.768-.439,1.984-.274,2.534-1.038a1.6,1.6,0,0,0,.246-.792,13.032,13.032,0,0,0-.132-2.114c-.1-.062-.294-.153-.34-.185,1.206-.1,1.835-.153,2.507.726s.341,1.489,1.363,2.112c.726.443,2.057.469,2.893.83,1.142.492,1.637.4,2.864-.328,1.1-.65,1.481-1.168,2.786-1.2a22.711,22.711,0,0,0,3.747,0,15.868,15.868,0,0,0,3.19-.822c.953-.419,1.713-1.423,2.869-1.136a51.258,51.258,0,0,1,0,6.714c-.107.024-.218.042-.321.066-.057.96-1.024.9-1.368,1.67,1.68.08,2.679,1.111,4.24,1.2,2,.113,1.976-1.946,3.871-2.528,1.186-.364,3.347.3,4.3.746.8.377.746.772,1.9.815a2.142,2.142,0,0,0,1.781-.557c1.218.434.6,1.4-.019,2.065a6.955,6.955,0,0,0,2.656.395c.492-1.019-.038-2.767,1.748-2.7.25-1.325-.843-2.041-.712-3.23,1.865-.712-.573-4.235-.988-5.233,1.138-.085,3.347-1.011,3.3.718,1.233.076,3.17-.321,4.233.412.478.331,2.428,2.945,2.35,3.462a1.979,1.979,0,0,0,.911-.2c.439-2.626,4.493-.47,4.122,1.748a5.273,5.273,0,0,1,1.492.255c.756,3.154,3.161.8,4.6,2.9.694,1.008-.172,2.061.205,3.107.3.815,1.895,2.025,1.874.427.113-.027,1.046-.077,1.062-.113.234-.492.443-.972.647-1.482,1.714-.121,1.4,2.011,1.889,2.88.34.605,1.926.827,2.534,1.153.2.106.746.624.963.779.472.331,1.152.2,1.52.968.476.992-.121,2.154.307,3.122C872.938,961.445,874.317,962.136,874.754,963.518Z" transform="translate(-740.513 -938.016)" fill="#ccc" stroke="#fff" stroke-width="3.543"/></svg>