<svg xmlns="http://www.w3.org/2000/svg" width="68.865" height="70.565" viewBox="0 0 68.865 70.565"><path d="M441.565,389.233c-2.481-1.941-5.532-2.872-8.214-4.472-1.369-.817-2.514-1.281-3.113-2.756-.544-1.34-1.856-2.017-2.949-2.874a10.084,10.084,0,0,0-4.828-1.817c-1.668-.2-3.037.9-4.261,1.891a20.179,20.179,0,0,1-4.834,2.669c-.879.4-1.776.8-2.611,1.235a23.363,23.363,0,0,0-2.071,1.678,6.581,6.581,0,0,1-2.723,1.037,17.188,17.188,0,0,0-3.637,1.306c-3.88,1.593-9.9,2.8-13.107,5.548-1.723,1.473-1.089,1.534-1.889,3.278a29.537,29.537,0,0,0-2.87,14.461c.17,3.186,1.436,6.574.928,9.784-.376,2.345-1.121,2.241-2.38,4.084-.75,1.1-1.916,3.315-1.255,4.708.8,1.694,3.283,0,4.073,1.67.442.933-.879,2.5.827,2.509.883.007,1.767,0,2.65,0,1.374,0,2.093.774,3.366.774a11.33,11.33,0,0,1,3.581.172c1.269.453,1.909,1.4,3.178.685.166-.4.448-.55.614-.937,1.45-.106,3.993.068,5,1.15.318.342.834,1.6,1.377,1.55.911-.075.324-1.855,1.53-.765.05.688-.225,1.293-.177,1.941.058.783.675,1.153,1.158.654.261-.27-.1-.607.391-.674s.322.263.387.582c.3,1.481-.731,1.7-1.178,2.881-.244.644-.153.353.406.892a2.591,2.591,0,0,1,1.077,2.214c.617.04,1.1.152,1.34-.373.212-.457-.115-1.153.095-1.645.234-.548.674-.614,1.067-.988a7.445,7.445,0,0,0,.987-1.432c.3-.47.541-1.117,1.046-1.258.444-.121,1.01.21,1.376.363a6.173,6.173,0,0,0,3.062.492c-.262-1.83,3.806-1.605,4,.484a10.7,10.7,0,0,1,2.021.187c.338.086.558.355.9.121.248-.17.2-.621.441-.8a6.775,6.775,0,0,1,.208-.724c.125.2.32.284.408.536.445-.187.18-.686.557-.96.261-.19.928-.094,1.247-.2.134-.384.461-.647.488-1.038-1.153.153-.922-2.157-.668-2.795a7.845,7.845,0,0,0,.561-2.928,1.746,1.746,0,0,1,.071-.648,12.545,12.545,0,0,0,1.542.411c.275.07.627.492.747.514,1.5.333.074-2.073,1.558-1.557,1,.347.484,2.138,1.349,2.521.624.273.708-.44,1.071-.73s.839-.218,1.047-.7a3.979,3.979,0,0,0-.028-1.531c-.266-.54-.557-.379-1.125-.424a.815.815,0,0,1,0-.358c.752.108.689-.563,1.17-.891a4.77,4.77,0,0,1,1.706-.5c-.04-.564.129-1.122.095-1.709-.745-.054-.716-.453-.55-1.065.276-.39.806-.323,1.325-.292-.008.689.976.605,1.369.879.544.377.444.831.794,1.416.605.079.412-2.895.375-3.468-.043-.728.294-2.718-.094-3.3-.316-.476-1.207-.317-1.689-.879a2.614,2.614,0,0,1-.654-1.976c.113-.442.412-.4.589-.688a1.259,1.259,0,0,0-.163-1.505c-.214-.316-.734-.868-.7-1.239.057-.73,1.46-1.571,1.971-1.928a19.713,19.713,0,0,1,3.467-2.008c3.6-1.557,2.506-7.232,2.074-10.263C445.915,395.7,444.646,391.643,441.565,389.233Z" transform="translate(-379.753 -375.524)" fill="#ccc" stroke="#fff" stroke-width="3.543"/></svg>