<svg xmlns="http://www.w3.org/2000/svg" width="183.45" height="171.902" viewBox="0 0 183.45 171.902"><path d="M225.815,519.106c4.9-3.638,9.494-7.719,15.164-10.116,5.6-2.363,10.946.526,15.533,4.307,4.3,3.543,7.535,7.63,12.57,10.354a75.1,75.1,0,0,1,11.184,7.761c3.511,2.783,6.695,5.741,10.058,8.653,4.338,3.754,7.993,7.951,12.644,11.64,4.118,3.261,8.4,6.485,12.683,9.567,2.848,2.048,4.545,5.371,5.427,8.707.972,3.695,2.491,6.514,3.864,10.072a32.686,32.686,0,0,1,2.4,10.418c.282,6.568-.4,11.47-3.767,17.186-4.6,7.8-10.413,15.315-14.238,23.5-3.671,7.866-6.36,15.322-11.93,22a67.878,67.878,0,0,1-13.191,11.47c-3.815,2.628-7.8,6.477-11.785,8.666-3.845,2.105-10.042,2.114-14.329,2.766-12.132,1.847-25.26-2.15-36.709-5.62-17.592-5.332-31.693-17.873-46.138-28.692-3.71-2.779-7.91-5.464-10.567-9.349-2.178-3.185-3.881-6.8-5.894-10.1-12.028-19.719-15.044-46.119-6.185-67.691,2.671-6.507,6.982-14.463,13.218-18.22,7.536-4.541,19.3-3.08,27.715-3.415a14.266,14.266,0,0,0,8.4-2.48c1.8-1.124,2.158-1.6,4.52-1.884,2.55-.3,5.317-.325,6.426-3.281C217.258,523.328,221.853,522.048,225.815,519.106Z" transform="translate(-145.707 -506.385)" fill="#ccc" stroke="#fff" stroke-width="3.543"/></svg>