<svg xmlns="http://www.w3.org/2000/svg" width="33.039" height="36.137" viewBox="0 0 33.039 36.137"><path d="M1093.853,630.315c1.283-7.324,2.2-15.381-5.912-18.578-2.162-.848-4.71-.686-7.03-.523-1.709.123-4.274.124-5.761,1.053a19.247,19.247,0,0,0-6.681,7.76c-1.654,3.591-3.219,7.881-3.3,11.853a19.065,19.065,0,0,0,1.445,7.321c.648,1.591,3.122,2.347,4.636,2.7,3.542.831,7.26,2.167,10.984,1.753,3.427-.376,7.731-.94,9.756-3.946C1093.532,637.42,1093.385,633,1093.853,630.315Z" transform="translate(-1063.394 -609.349)" fill="#ccc" stroke="#fff" stroke-width="3.543"/></svg>