<svg xmlns="http://www.w3.org/2000/svg" width="107.002" height="128.987" viewBox="0 0 107.002 128.987"><path d="M569.073,1450.641c1.976,5.432,4.364,11.22,2.863,17.1-1.611,6.3-6.816,8.863-9.413,14.667-2.2,4.923-4.306,9.761-6.64,14.662-2.654,5.573-5.655,10.929-8.247,16.447-1.573,3.364-3.531,6.574-5.283,9.849-1.234,2.3-3.122,4.015-4.031,6.49-1.241,3.375-.532,7.473-2.423,10.615-1.977,3.286-7.043,4.179-10.013,6.681-5.516,4.646-10.806,10.658-17.076,14.572-3.138,1.96-7.924,1.944-11.476,1.887-3.815-.057-8.356-.409-11.635-2.584a4.568,4.568,0,0,1-1.685-6.545,3.018,3.018,0,0,1,1.218-1.025c.257-.131,2.188-.54,2.2-.616s.026-.143.04-.218a1.829,1.829,0,0,0,.476-.04c.045-.71-.008-1.445.039-2.154.14.016.337-.055.477-.04.033-.458.008-.932.04-1.39,1.944.774,1.285-.915.992-2.184-.073-.013-.143-.028-.218-.042-.034-1.045-1.138-1.712-1.057-2.682a2.675,2.675,0,0,1,1.661-1.833,4.588,4.588,0,0,0,.12-2.258c-.635-.1-1.731-1.727-1.871-2.389-.245-1.159.261-.4.993-1a6.113,6.113,0,0,0,1.041-2.068c.281-.96-.379-3.72,1.4-3.382a3.363,3.363,0,0,1,.372-1.657c.175-.427.227-1.17.435-1.557.305-.573.942-.17.637-1.145-.239-.766-.865-.806-.8-1.767-.734-.3-1,.325-1.293.836-1.109.218-1.694-1.114-2.707-1.275,1.347-.089.173-3.154,1.68-3.629a6.112,6.112,0,0,1-.135-1.379l-.218-.042a3.6,3.6,0,0,1,.847-2.468c.244-.4.75-.177.558-.995a1.777,1.777,0,0,0-1.412-1.055c.04-.524-.283-.866-.258-1.38,1.333.11,1.291-.968,1.3-2.052a2.447,2.447,0,0,0-.026-.763,9.231,9.231,0,0,0-.524-1.338c-.358-.763.024-.613-.9-.772a3.626,3.626,0,0,0-1.546.125c-.692.218-.617.524-1.065.879-.932.747-1.87.363-1.8,1.813a.993.993,0,0,1-.732.132c-.149-1.375-1.444-.784-2.044-1.571a13.871,13.871,0,0,1-.783-3.258,9.584,9.584,0,0,1,.473-2.871c.114-.847-.24-1.928.637-2.5.084-1.143.217-2.805-.522-3.72-.46-.573-1.392-.637-2.04-1.03-.611-.367-.981-.867-1.79-.8.229-.718-.076-1.69.265-2.409.312.024.683-.073.992-.04.029-1.522.5-3.446-1.372-3.823-1.339-.267-3.439.1-4.9.1.108-.008.22-.01.331-.02.089-.557.8-1.073,1.05-1.529.354-.634.2-1.105,1.016-1.442,0-.91-1.057-.682-1.528-1.03-.641-.476-.588-.918-1.421-1.137-.268-.073-.654-.04-.9-.135-.305-.113-.587-.471-.733-.524a6.9,6.9,0,0,0-1.831-.139,12.642,12.642,0,0,1,.133-3.318c.832.215,1.2.954,2.283.737.1-1.552,1.783-.59,1.845-2.283.524-.034,2.008-.3,2.448.011a4.114,4.114,0,0,1,.389,2.012c.54.038,1.037-.42,1.665-.495a13.7,13.7,0,0,1,1.545,0c.524,0,2.154.282,2.564,0s.266-.589.35-1.137a3.206,3.206,0,0,1,1.332-2.49,4.409,4.409,0,0,1,2.85-.508c.692.222.908,1.449,1.654,1.274a3.476,3.476,0,0,0,.17-.992,5.251,5.251,0,0,1,1.887-.278,6.513,6.513,0,0,1,1.605.363,13.485,13.485,0,0,1,1.646.25c.639.207,1.078.637,1.791.528a5.069,5.069,0,0,1,.921-3.109c1.041-1.119,2.659-.8,4.113-.891a3.014,3.014,0,0,1,.182-1.367c.218-.367.768-.37,1-.807a5.118,5.118,0,0,0-.023-2.968c-.444-.594-2.368-.734-3.078-.774-1.041-.054-1.951.146-2.7-.681.445-.271.816-.786,1.307-1.121.558-.381,1.031-.444,1.423-.905.726-.849.532-2.412.464-3.468-.173.032-.441-.073-.612-.04.363-1,.068-2.375.136-3.444,1.147-.073,2.916.134,3.8-.782.379-.4.734-3.466.851-3.476.988-.062,2.105-.485,2.782.137.867.8.831,1.7,1.943.589.432-.429.109-1.008,1.038-.589.218.1.679.79.937.976a6.221,6.221,0,0,0,1.67.674c.765.286.578-.092.911.653.211.474-.119.621.511,1.156a12.067,12.067,0,0,0,1.286.8c1.041.669,1.694.879,2.675.069a8.886,8.886,0,0,0,1.17-1.024c.282-.357.828-.75,1.032-1.064.443-.672.621-2.121,1.686-2.034a20.1,20.1,0,0,0,0-2.8l-.216-.041a3.815,3.815,0,0,1,.129-1.378,12.787,12.787,0,0,1,6.3-1.314,2.422,2.422,0,0,1,1.944.516c.472.369.669.975,1.287,1.169.821.256,2.509.084,2.343-1.02.253.05.609-.089.863-.04.2-2.718,1.442.119,1.8-.512.3-.519.424-1.26.883-1.642.111-.091,1.313-.412,1.315-.427.055-.75-.223-1.717.516-2.154-.336-.106-.992-.2-1.039-.637-.078-.736,2.1-.5,2.606-.411,1.4.234,1.234.846,1.311,2.047a2.574,2.574,0,0,0,.863-.393c.141-2.025,1.96-.209,1.847,1.041a4.346,4.346,0,0,0,1.767.128c-.151-2.185,1.2-1.706,2.839-1.81.214-.7-.545-.831-.347-1.508,1.355-.734.721-2.625,2.54-2.493.041-.669,0-1.361.04-2.024.456-.089.847-.037,1.035.347a1.021,1.021,0,0,1,.345.04,3.578,3.578,0,0,1,.17,1c.781.229,1.1-.363,1.289-1,1.435.466,2.757,1.344,4.154,1.8,2.6.847,5.841,1.232,7.928,3.185A17.631,17.631,0,0,1,569.073,1450.641Z" transform="translate(-467.072 -1436.406)" fill="#ccc" stroke="#fff" stroke-width="3.543"/></svg>