<svg xmlns="http://www.w3.org/2000/svg" width="83.631" height="67.394" viewBox="0 0 83.631 67.394"><path d="M572.615,443.412c-4.746,1.153-6.287,4.477-7.59,8.8-.744,2.461-1.081,3.445-.232,5.829.435,1.218,1.244,2.294,1.706,3.509s-.673,1.75-.758,2.783c-.059.725.652,1.283,1.34,1.775.523.379,1.02.94,1.556,1.286,1.128.73,2.982.973,4.148,1.618-.654-.1-1.2.336-1.775.568a21.485,21.485,0,0,1-1.055,3.462,9.158,9.158,0,0,1-1.193,1.517c-.312.389-.93.962-1,1.452-.1.68.637,1.208.809,1.8.162.557-.121,1.508.192,1.971.673.985,3.073.038,3.968-.143-.108.611.371,1.4-.177,2.021,1.25.605,1.943,2.544,2.7.287.359-1.073.207-.841,1.287-1.162.4-.12.5.011.807-.352.247-.291.058-.728.224-.939.508-.648.982-.161,1.809-.385,1.084-.294.622-1,1.678-.551a5.534,5.534,0,0,1,1.549,1.194c.592.661.68,1.605,1.279,2.326a11.534,11.534,0,0,0,2.47,1.9c.869.63,1.622,1.289,2.444,1.968.652.54,2.656.844,2.164,1.654-.31.511-1.982.643-2.525.823a1.828,1.828,0,0,0-.387,1.508c1.121.364,1.3,1.822,2.54,1.976.081,2.171,1.468.993,2.989,1.014,2.154.03,1.84.738,1.957,2.562,1.072-.092,2.3,1.067,3.334,1.41a9.15,9.15,0,0,1,1.678.516c.762.439.59.419.667,1.429a16.814,16.814,0,0,0,2.043.019,5.508,5.508,0,0,1,1.936.258c1.374.294,2.537-.629,3.852-.367.039.614,0,1.258.04,1.868a2.935,2.935,0,0,1,1.121-.062c.06,1.073,1.6-.065,1.46,1.639a13.354,13.354,0,0,0,1.637,0c.7-.864.331-1.5,1.454-2.02.811-.378,1.742-.657,2.58-1.009a24.97,24.97,0,0,1,5.009-1.379c2.88-.542,5.842-.654,8.7-1.239,5.832-1.2,10.34-6.618,12.22-12.107a30.241,30.241,0,0,0,1.067-11.418c-.437-4.525-1.969-6.465-5.545-9.677-8.034-7.219-16.831-13.914-25.32-20.629-2.124-1.681-2.781-1.208-4.9-2.057-1.365-.542-2.39-1.944-3.839-2.244-1.532-.315-4.242.574-5.784.836-4.121.7-8.181,1.76-12.344,2.218A108.136,108.136,0,0,0,572.615,443.412Z" transform="translate(-562.647 -436.594)" fill="#ccc" stroke="#fff" stroke-width="3.543"/></svg>