<svg xmlns="http://www.w3.org/2000/svg" width="167.542" height="148.636" viewBox="0 0 167.542 148.636"><path d="M555.7,514.682c-4.718-3.413-10.4-6.164-15.358-9.309-4.486-2.843-9.294-6.141-14.14-8.273-6.574-2.891-14.011-3.2-19.128,2.541-3.512,3.94-5.484,9.232-7.711,13.942-1.988,4.205-8.049,12.491-6.9,17.2,1.147,4.689,9.252,9.3,12.926,11.806,1.428.976,2.705,2.163,4.092,3.2,1.343,1,3.2,1.61,4.391,2.757.875.845,1.051,2.038,1.67,3.044.477.776,1.339,1.231,1.846,1.978.9,1.338-.234,1.091-.72,2.043-.443.859-.161,3.212.031,4.151.3,1.463,1.153,1.952,1.221,3.443.073,1.573,1.754,1.4,2.7,1.767.311.122,1.438.27,1.4.831-.036.491-1.033.6-1.032.563-.05,1.393,2.3.073,1.686,2.065-.563.137-.7.573-.581,1.166-1.476-.329-1.41.847-1.3,1.936,1.258.08,3.291-.253,3.624,1.349-.884-.024-2.3-.13-2.328.974-.807.051-1.654.005-2.458.062-.022.1-.041.214-.065.322-1.911.179-2.732,3.646-.961,3.487-.262-2.839,2.821-1.808,4.837-1.935-.041-.468.1-1.024.057-1.492a6.126,6.126,0,0,1,1.906-.034c.453.16.816.9,1.008.933,1.207.193,1.3-1.194,2.638-.9.165.774.121,1.767,1.169,1.492a3.677,3.677,0,0,1,.449-1.679c.218,0,.492-.076.714-.062.057-.6.25-.785.766-.914.308.848.794,1.606,1.615,1.718a1.167,1.167,0,0,0-.774,1.325c.1.439,1.877-.5,2.057-.532a5.833,5.833,0,0,1,2.169.436c.655.162,1.124.573,1.678.748a12.016,12.016,0,0,0,3.6.005c-.015-.139.056-.336.04-.476,1.566-.1,2.04.476,3.187,1.3-.181,1.25,1.817.916,2.347,1.525.46.524-.089,1.831.381,2.7.651,1.217,1.4,1.644,1.422,2.976.015,1.036-.213,2.085-.153,3.081-1.563.057-.815,1.654-1.767,1.718a5.37,5.37,0,0,0-.172,1.894c-1.024.573-.8,2.606-1.892,3.138-.2.95-.974,1.875-1.076,2.8-1.016-.888-.976.8-.9,1.418-.119.014-.23.024-.347.038-.019.979,1.748,1.843.4,2.69-.45.282-1.076-.073-1.575.121-.734.286-.637.734-1.42.911-1.059.24-2.278-.153-3.356,0-1.382.193-.846,1.3-.925,2.562-.6.254-1.113-.248-1.558-.012-.54.281-.357,1.129-.356,1.709,0,.983-.331,3.32,1.266,3.117.142.621.614,1.11.521,1.767-1.252-.234-.838,1.347-1.9,1.2-.071,1.11.219,2.143-.694,2.955-.518.461-1.863,1.582-2.533,1.433-.057.727.622,1.25.855,1.917s.492,1.412.676,2.065c.274.96,1.108,3-.37,3.378-.194,2.09,1.618.566,2.436,2.043.6,1.079-.1,2.28.017,3.465a6.644,6.644,0,0,0,1.508.129,2.8,2.8,0,0,1,1.153-2.556c.293,1.372,1.93.429,2.493,1.412.25.442.161,1.083.5,1.613s.618,1.018,1.275,1.081c-.051-.256.087-.611.039-.867.782-.256,1.989-.1,1.936,1,.371-.119.815-.657,1.266-.922a8.518,8.518,0,0,1,1.8-.894c.028-.832.083-1.744.911-2.17-.6-.688-.907-1.38-1.9-1.7-.122-.523.218-.831.734-.767a4.8,4.8,0,0,0,.028-1.54c-.2-.524-.818-.573-.8-1.265-.9-.108-1.847.669-2.928.476a13.239,13.239,0,0,1,.274-3.334,4.162,4.162,0,0,0,.092-1.678c-.29-1.014-.422-.534-1.29-.774-2.028-.563.375-5.557-1.912-5.058-.427-.9.008-1.935-.5-2.846-.4-.707-.6-.752-1.328-.876-.523-.089-1.374.25-1.141-.624.874-.024.863.006,1.269-.539.108-.146.121-.6.255-.81s.412-.314.54-.589a3.312,3.312,0,0,1,1.525-.412c.863.227.605.719.669,1.531,1.511.095,1.7.089,1.807-1.379.314.027.683-.07.992-.04.029-.454.01-.928.032-1.38,1.259,0,.64-.2,1.239-.831a3.592,3.592,0,0,1,1.167-.6c.575.884-.53,1.217-.492,2.057.024.53.729,1.363.766,2.041-1.25.082-2.543.24-2.283,1.932.287.169.639.379.863.523a5.383,5.383,0,0,0,.17-1.25,2.064,2.064,0,0,1,1.121-.134c.054.947.031,1.613-.863,2.069a1.883,1.883,0,0,0,0,.863.752.752,0,0,0,.9-.734c.353-.066,1.294-.611,1.635-.379.58.4-.333,1.365.654,1.544-.028.175.062.427.04.605.87.012.944-.661,1.944-.407.511.132.654.393,1.263.427a2.908,2.908,0,0,0,1.142-.15c-.029-.314.07-.681.04-.992,1.084-.137.144-1.146-.044-1.546a6.52,6.52,0,0,1-.444-1.713c.821.024,1.145.826,2,.674-.073,1.508.885,1.089,2.069,1.162.238,1.2-1.087,1.524-1.666,2.2-.629.734-.861,2.358.5,2.541.121-.732-.636-1.236.146-1.665.441-.24,1.661.016,2.177-.016-.073-.509-.009-1.04.533-1.145.75-.149.751.6.928,1.145a30.441,30.441,0,0,0,4.735-.13c.057-.895-.32-2.025.387-2.664.451-.408.678.057.89.045a2.433,2.433,0,0,0,1.024-.185c.8-.347,1.823-1.1,1.215-2.057a5.113,5.113,0,0,1,2.167.218c-.008-.654,2.024-1.306,2.581-1.258.107,1.721.2,1.675,1.569,2.572.483.315.687.976,1.27,1.174a1.464,1.464,0,0,1-.726,1.685c-.561.379-1.186.2-.911,1.239.138.039.237.1.359.141a2.221,2.221,0,0,1-.269.637c-.4.165-.254.09-.515.387a.917.917,0,0,0-.864.769,4.281,4.281,0,0,0,1.641-.124,1,1,0,0,1,1.31-1.14c.8.234.491,1.1.533,1.914,1.527.428,1.107-1.756.774-2.537.442-.355,1.177-.484,1.428.089a1.3,1.3,0,0,0,.251-.742c1.138-.324.716.7,1.267,1.024a7.562,7.562,0,0,0,1.918.1,2.846,2.846,0,0,1,0-.347.91.91,0,0,1-.573-.774,4.027,4.027,0,0,1,1.864-.133,3.008,3.008,0,0,0,.149.772,2.034,2.034,0,0,0,.146-1.031,11.2,11.2,0,0,1,1.386.005c-.066.494-.561.542-.734.874a2.894,2.894,0,0,0-.153,1.3,5.14,5.14,0,0,1-.729,2.818c1.138.3,1.53-1.052,2.642-.995.057.884,4.061.411,5.008.35-.814-1.689,1.79-2.51.549-4.109a1.2,1.2,0,0,1,1.156-.237,2.079,2.079,0,0,0,.15.9c.323-.616.8-1.421,1.783-1.16.016.256.193.47.173.733.448.444.729.879,1.508.779-.179-.865.625-1.3.29-2.283.511-.032,1.782-.237,2.185.1.9.75-.089,2.109.017,2.96.583.032,1.25-.18,1.786-.106.987.13.477.412.928,1.006.85,1.116,2.047.292,3.311.561.059.924-.393,2.764.537,3.289.718.406,2.493.014,3.336.067.012.367.025.756.04,1.121.751.047,1.53-.008,2.283.04.044.71-.007,1.444.04,2.154.411.029.841.008,1.25.04.03.412.008.841.04,1.25,1.008-.2.831.99,1.637.774.073-.68-.185-1.25-.089-1.9,1.4-.089,4.38.523,5.165-.643a2.079,2.079,0,0,1,1.786.492c.208.234-.017.686.147.879.232.274.8.121,1.015.339.292.305.481,1.476.137,1.79-.4.365-1.428.014-1.794-.151a13.7,13.7,0,0,0,0,1.774c.17-.037.438.073.605.036.039.581,0,1.186.04,1.767,1.621-.08,1.1,1.222.749,2.343-.071.218-.018.427-.152.645-.117.185-.568.363-.589.412a4.76,4.76,0,0,0-.174,1.764c-.252-.052-.609.089-.863.039a1.552,1.552,0,0,0,0,.735,2,2,0,0,1,1.4,1.181c.232.524-.161,1.387.75,1.31-.153,1.336,1.546,1.029,2.452,1.295.113,1.557,1.2,1.267,2.469,1.267,1.036,0,2.654.329,3.367-.481.766-.868-.077-2.263.629-3.111.129-.153.637-.045.753-.176.16-.18.057-.682.151-.754.416-.331.839-.23,1.41-.274-.159-.954-1.389-1.321-.37-2.334.35-.35.767-.218,1.041-.74.379-.727-.137-.789-.3-1.255a1.48,1.48,0,0,1-.093-1.325c.2-.452.75-.674.772-1.165.015-.352-.438-.552-.524-.9a5.767,5.767,0,0,1,.024-1.537c1.161-.142,2.033-.441,2.3-1.7a3.725,3.725,0,0,0-.672-2.811c-.669-.7-1.527-.755-2.135-1.734-.57-.916-.346-1.983-.773-2.949a4.58,4.58,0,0,1-.549-2.831,10.644,10.644,0,0,1,1.008-3.133,2.494,2.494,0,0,1,2.089-1.255c1.412-.268,1.69-.847,2.7-1.654,1.175-.939,2.837-.831,3.587-1.992.712-1.1.914-2.638,2.469-2.96.4-.669,1.616-.524,2.059-1.17.655-.952-.073-1.844,1.283-2.1.864-.164,1.734.218,1.6,1.208,1.459.137,1.1-.84,2.2-1.27s1.9.439,2.936.519c1.129.089,2.392.227,2.455-1.036a2,2,0,0,0-.52-1.416c-.5-.587-.3-.282-1.158-.492-.492-.121-.558-.3-1.033-.543s-1.041-.056-1.524-.283c-.318-.153-.492-.669-.77-.907a3.387,3.387,0,0,0-1.19-.585,9.989,9.989,0,0,1-2.621-1.444c-.33-.4-.194-1.03-.444-1.432a3.751,3.751,0,0,0-.966-.867,4.573,4.573,0,0,1-1.767-2.2,5.169,5.169,0,0,0,2.472-.633c1.252-.546,1.057-.678.734-1.972s-.316-1.051-1.67-1.158c-.717-.057-.734-.3-1.287-.52a4.735,4.735,0,0,0-1.528-.28c-.6-1.275-.458-2.2,1.008-2.3.218-.015.718.1.9,0,.524-.3.078-.446.38-.782a2.093,2.093,0,0,1,1.685-.637c1.256-.1,2.634.221,3.872,0,.609-.108,1.412-.484.686-1.3-.389-.435-1.24-.234-1.828-.266a.686.686,0,0,0-.769-.779,9.152,9.152,0,0,1-.29-2.8c-1.158-.166-2.985.457-3.831-.795-.807-1.189.438-3.049-.825-4.106-.266-.218-.857.077-1.138-.254-.326-.387.025-.913-.008-1.316-.1-1.17-1.3-1.86-1.18-3.076-2.024.121-1.728-2.75-2.067-4.06-.621-2.4-1.073-4.809-1.46-7.268-.9-5.7-2.55-13.073-7.265-16.979-5.038-4.172-12.875-6.171-18.892-8.4-3.051-1.13-6.252-2.638-9.478-3.027-6.316-.766-12.863,1.378-19.167,1.525-5.2.121-7.259-3.09-11.514-5.216C566.508,519.8,560.616,518.241,555.7,514.682Z" transform="translate(-490.592 -493.149)" fill="#ccc" stroke="#fff" stroke-width="3.543"/></svg>