<svg xmlns="http://www.w3.org/2000/svg" width="86.099" height="140.738" viewBox="0 0 86.099 140.738"><path d="M1023.362,683.467a10.739,10.739,0,0,1-1.229-1.525c-1.049-1.285-2.089-2.557-3.227-3.762-1.38-1.465-3.543-2.557-3.643-4.783-.077-1.709,2.212-2.788,3.751-2.569.847.121,1.129.644,1.856,1.041.575.313,1.492.136,1.791.72.168.321-.073.706.138,1.024a5.96,5.96,0,0,1,.777.486c.363.122.722-.089,1.041-.082.416.007.769.175,1.166.176.347,0,.626-.185,1.057-.1.63.121.419.274.877.508a3.64,3.64,0,0,0,2.131.194c.394-.184.273-.488.552-.8.141-.16.6-.264.786-.373.023-.371,0-.761.031-1.131a1.628,1.628,0,0,1,1.241-.21c.571.124.707.665,1.258.8.5.123.672-.495,1.068-.419.363.069.454.553.605.863a3.279,3.279,0,0,1,.75-.848c.823.282.809.655,1.772.46a11.164,11.164,0,0,0,2.2-.718c10.72-4.629,24.723,2.958,24.52,15.071-.077,4.6-2.174,7.684-5.416,10.7-1.38,1.283-3.773,2.685-4.623,4.4-.928,1.872-.524,4.541-.783,6.617-.524,4.144-2.037,8.483-2.822,12.648-.985,5.208-1.266,10.528-2.27,15.728-1.085,5.622-.938,7.584,2.209,12.745a54.075,54.075,0,0,1,7.214,18.388,103.749,103.749,0,0,1,1.711,27.034c-.787,9.875-12.188,12.5-20.874,12.214-6.88-.228-13.719-2.3-20.38-3.912-3.414-.823-7.7-1.386-9.689-4.621-1.769-2.878-2.493-5.5-4.781-8.014-1.7-1.864-1.794-.957-2.174-3.885a13.636,13.636,0,0,1-.185-4.6,4.548,4.548,0,0,1,.923-1.734,2.929,2.929,0,0,1,.472-.463c.519-.39,1.321-.279,1.848-.589s.716-.928,1.428-1.042c-.266-.3-.707-.146-.991-.379-.611-.507-.189-.525-.287-1.137-.121-.763.164-.52-.673-1a8.465,8.465,0,0,1-1.121-.67c.4-.857,1.278-.261.762-1.452-.331-.768-1.829-1.284-1.7-2.017-.53-.1-.984.147-1.512.093a3.861,3.861,0,0,0,.093-1.383,3.791,3.791,0,0,1-2.178-1.049c-.17-.172-.318-.652-.542-.879s-.557-.2-.767-.508a3.09,3.09,0,0,1-.1-2.1c.238-.741.75-.846,1.529-1.186.292-1.113-2.382-.779-3.057-.731-.013.073-.027.143-.042.216-.463.1-.669-.132-.642-.605-1.139-.067-2.009.637-2.727-.148-.881-.963-.907-2.182-2.519-1.7-.445-1.183-.819-1.363-2.22-1.27-.587.038-.923.182-1.3-.127-.137-.11.1-.594-.112-.786-.331-.29-1.014-.1-1.417-.137a4.3,4.3,0,0,1,.524-2.413c1.274-.029.928-2.833.148-3.352,1.084-.08,2.213.024,3.3-.04.182-.721-.451-1.095-.35-1.768a7.844,7.844,0,0,1,2.541-.129c.137,1.928.588,2.408,2.6,2.433,1.016.012,1.063-.012,1.291-.9.255-1,.078-1.048,1-1.706.949-.674,1.85-1.414,2.837-2.036a6.156,6.156,0,0,1,3.158-.951c1.241-.133,1.186-.5,1.394-1.686.185-1.054.5-1.663,1.525-.733.086-1.392.024-2,1.568-1.388a7.981,7.981,0,0,0,3.594.863c.107-.654.038-1.234-.58-1.536.806-.01,1.4.485,2.124.379.141-.412.01-.9.141-1.278.185-.526.508-.331.524-1.029s-1.217-1.27-.879-1.654c.226-.255,2.033-.04,2.288.1.964.524.484,1.276,1.927,1.144.029-.412.008-.842.04-1.25l.216-.042c.056-.476-.2-1.261.016-1.56.4-.566,1.237-.363,1.667-.11-.2-1.112,1.055-1.01,1.809-1.041-.12-.427-.5-.978-1-1.026-.218-.847.621-.637,1.016-.982.379-.335.646-.863,1.061-1.322.944-1.047.933-1.863.856-3.333-1.894-.355-.234-1.474-.616-2.187.71-.058,1.448,0,2.161-.045.04-.7.264-2.112-.1-2.691-.418-.661-1.734-.524-1.4-1.784.273-.057.44-.262.734-.3.087-1.363.661-3.753-.015-4.993a6.753,6.753,0,0,0-1.373-1.7c-.432-.394-.75-.112-.746-.839,0-.837,1.275-1.432,1.589-2.138-.892-.434-.939-1.213-1.211-2.055-.22-.686-1.041-1.42-.914-2.174.623-.04,1.27-.005,1.9-.032.073-.992-.016-1.8,1.181-2.055,1.084-.234,1.32.869,2.306.75-.068-.595-.2-1.153-.242-1.791a2.754,2.754,0,0,0-.519-1.928,11.172,11.172,0,0,0-1.029-1.552c-.519-.5-.928-.355-1.654-.4-.157-.811-.523-.66-1.057-1.016a1.719,1.719,0,0,1-1-1.287c-.185-.918.292-1.115.616-1.8a4.515,4.515,0,0,0,.28-1.791,9.673,9.673,0,0,0,1.767.089c.546-1.552.436-1.977,2.063-2.452.121-.037.469-1.046.607-1.213,1.1-1.315,2.638-.785,2.669-3,.012-1-.734-1.784-.832-2.756-.1-.924.393-1.907.029-2.823-.266-.679-.987-.641-1.508-.973A14.254,14.254,0,0,1,1023.362,683.467Z" transform="translate(-980.309 -669.02)" fill="#ccc" stroke="#fff" stroke-width="3.543"/></svg>